<?xml version="1.0" encoding="utf-8"?>
<!-- Generator: Adobe Illustrator 23.0.2, SVG Export Plug-In . SVG Version: 6.00 Build 0)  -->
<svg version="1.1" id="Layer_1" xmlns="http://www.w3.org/2000/svg" xmlns:xlink="http://www.w3.org/1999/xlink" x="0px" y="0px"
	 viewBox="0 0 512 512" style="enable-background:new 0 0 512 512;" xml:space="preserve">
<style type="text/css">
	.st0{fill:#FF6E00;}
</style>
<g>
	<path class="st0" d="M503.9,236.6c-5.1-9.7-16.8-18.9-28.5-16.1c6.7-39.8,13.9-96.3,13.4-120.7c-0.7-29.6-29.6-30.7-43.6-31.3
		c-7.6-0.3-33.1-0.3-40.7,0c-10.1,0.4-28,1.1-37.4,12.6c-9.8-8.9-25.6-9.5-34.8-9.8c-7.8-0.3-32.9-0.3-40.7,0
		c-9.6,0.4-26.4,1-36.1,11.1c-9.7-10.1-26.5-10.8-36.1-11.1c-7.8-0.3-32.9-0.3-40.7,0c-9.2,0.4-25,1-34.8,9.8
		c-9.4-11.6-27.4-12.2-37.4-12.6c-7.8-0.3-32.9-0.3-40.7,0c-13.9,0.5-42.9,1.6-43.6,31.3c-0.6,24.9,6.6,82.3,13,120.5
		c-11.4-1.8-22.1,6.8-27.2,16.3C2.7,246.8-0.1,281.7,0,340.4c0,20,10.5,37.9,31,53.1C65.8,419.3,131,436.9,210,442
		c69.4,4.4,142.5,0.8,209.4-19.6c9.3-2.8,4.9-17.1-4.4-14.3c-54.4,16.6-130.6,23.7-204.1,19c-76.1-4.9-138.5-21.5-171-45.5
		c-16.5-12.2-24.9-26.1-25-41.1c0-49.3,2-77.4,4.4-89.9c2.5,7,6.4,13.5,11.3,19.1c6.4,7.3,17.6-2.6,11.2-9.9
		c-2.2-2.6-14.9-22.8-9-24.3c1.1-0.3,3.8,1.1,4.9,3.3c13.9,17.5,40.5,21.3,60.9,15.3c21.6-6.4,31.4-21.8,35.8-42.8
		c1.8-8.4,14.3-8.2,15.9,0.3c1.8,9.7,3.5,18,4.9,24c9.7,40.3,80.8,39,89.7-1.2c1.4-6.3,3.1-14.7,4.8-24.4c1.2-6.7,11.9-7.1,13.1,0
		c1.7,9.6,3.4,18.1,4.8,24.4c8.9,40.2,80,41.4,89.7,1.2c1.5-6,3.2-14.3,4.9-24c1.5-8.2,14-9.2,15.9-0.3
		c4.7,22.1,15.6,38.2,38.9,43.7c18,4.3,36.6,0.7,49.5-8.7c2.6-0.6,10.6-12.5,13.1-10.7c0.9,0.6,2.3,6-3.4,16.3
		c-5.9,10.6-15.6,18.3-27.4,21.5c-15.3,4.2-33.1,0.9-50.3-9.3c-25.2-14.9-39.3-4.1-51.8,5.4c-9.2,7-18.7,14.2-34.5,14.2
		c-19,0-27.8-6.4-35.5-12c-14.5-10.6-27-10.6-41.5,0c-7.7,5.6-16.4,12-35.5,12c0,0,0,0,0,0c-15.8,0-25.3-7.2-34.5-14.2
		c-12.5-9.5-26.6-20.3-51.8-5.4c-12.9,7.7-26.3,11.5-38.7,11c-9.7-0.4-10.2,14.6-0.5,15c15.3,0.5,31.5-4,46.9-13.1
		c16.5-9.7,23.1-4.7,35.1,4.4c10.1,7.7,22.7,17.3,43.5,17.3h0c23.9,0,35.7-8.6,44.3-14.8c9.4-6.8,14.4-6.9,23.9,0
		c8.6,6.3,20.4,14.8,44.3,14.8c20.9,0,33.4-9.6,43.5-17.3c12-9.1,18.6-14.2,35.1-4.4c20.7,12.2,42.6,16.1,61.8,10.9
		c18-4.9,32.9-18.1,39.8-35.5c2.3,13.2,4.1,41,4.1,88.3c0,19.9-14.5,37.4-43,52.1c-8.4,4.4-1.5,17.6,6.9,13.3
		c33.4-17.2,51-39.9,51.1-65.4C512,281.7,509.3,246.8,503.9,236.6L503.9,236.6z M119.9,208.1c-0.7,3.3-1.4,6.4-2,9.1
		c-3.6,16.2-19.2,21.6-25.7,23.1c-15,3.5-30.8,0-39.9-8.5c0-0.5,0-1.1-0.1-1.6c-7.3-40.1-15.4-105.6-14.9-130
		c0.2-10.5,4.7-15.7,29.2-16.6c7.4-0.3,32.2-0.3,39.5,0c24.5,0.9,28.9,6.1,29.2,16.6c0.4,20.2-5,64.5-9.9,97.4
		C122.6,200.5,120.7,204.1,119.9,208.1z M235.1,207.3c-1.7,9.5-3.3,17.7-4.7,23.8c-2,9-10.8,18.8-29.3,18.9c-0.1,0-0.3,0-0.4,0
		c-13.2,0-28-6.2-30.9-18c-1.4-5.8-3-13.8-4.8-23.2c-0.9-5-3.4-9.4-6.9-12.7c-5.2-40.9-8.4-77.3-8-93.1c0.2-10.5,4.7-15.7,29.2-16.6
		c7.4-0.3,32.2-0.3,39.5,0c24.5,0.9,28.9,6.1,29.2,16.6c0.3,15.6-3,52.6-8.5,94.8C237.3,200.4,235.8,203.6,235.1,207.3L235.1,207.3z
		 M347.8,208.8c-1.7,9.4-3.4,17.4-4.8,23.2c-2.9,11.9-17.6,18-30.9,18c-0.1,0-0.3,0-0.4,0c-18.5-0.2-27.3-9.9-29.3-18.9
		c-1.4-6.1-3-14.4-4.7-23.8c-0.9-4.8-3.4-9-6.8-12.1c-5.1-40.5-8.2-76.5-7.9-92.2c0.2-10.5,4.7-15.7,29.2-16.6
		c7.4-0.3,32.2-0.3,39.5,0c24.5,0.9,28.9,6.1,29.2,16.6c0.3,15.8-3,53.2-8.7,95.8C350.1,201.6,348.5,205,347.8,208.8L347.8,208.8z
		 M420.7,240.3c-6.5-1.5-22.1-6.9-25.7-23.1c-0.6-2.7-1.3-5.8-2-9.1c-1.1-5.2-3.9-9.7-7.8-12.9c-5-34.1-9.7-75.8-9.2-95
		c0.2-10.5,4.7-15.7,29.2-16.6c7.4-0.3,32.2-0.3,39.5,0c24.5,0.9,28.9,6.1,29.2,16.6c0.6,26.6-9,96.5-16,133.9
		C448.5,240.9,434.3,243.5,420.7,240.3L420.7,240.3z"/>
	<path class="st0" d="M460.2,106.3c0.4-9.7-14.5-10.3-15-0.6c-0.7,15.1-1,19.9-4,45.2c-1.1,9.3,13.7,11.5,14.9,1.7
		C459.1,126.9,459.5,121.7,460.2,106.3z"/>
	<path class="st0" d="M115.7,98.5c-4.1-0.2-7.6,3-7.8,7.2c-0.6,15.1-1,19.8-4,45.2c-1.1,9.3,13.7,11.5,14.9,1.7
		c3-25.7,3.4-31,4-46.3C123,102.2,119.8,98.7,115.7,98.5z"/>
	<path class="st0" d="M340.9,98.5c-4.2-0.1-7.6,3.1-7.7,7.3c-0.5,15.1-0.8,19.9-3.4,45.3c-1,9.4,13.9,11.3,14.9,1.5
		c2.7-25.8,3-31,3.5-46.4C348.3,102.1,345,98.6,340.9,98.5L340.9,98.5z"/>
	<path class="st0" d="M228.6,98.5c-4.2-0.1-7.6,3.1-7.7,7.3c-0.5,15.1-0.8,19.9-3.4,45.3c-1,9.4,13.9,11.3,14.9,1.5
		c2.7-25.8,3-31,3.5-46.4C236,102.1,232.7,98.6,228.6,98.5L228.6,98.5z"/>
</g>
</svg>
