<?xml version="1.0" encoding="utf-8"?>
<!-- Generator: Adobe Illustrator 23.0.2, SVG Export Plug-In . SVG Version: 6.00 Build 0)  -->
<svg version="1.1" id="Layer_1" xmlns="http://www.w3.org/2000/svg" xmlns:xlink="http://www.w3.org/1999/xlink" x="0px" y="0px"
	 viewBox="0 0 512 512" style="enable-background:new 0 0 512 512;" xml:space="preserve">
<style type="text/css">
	.st0{fill:#FF6E00;}
</style>
<path class="st0" d="M480.1,99.1c-47.3-7.8-105.1-37.7-167.7-29.9c-37.5,4.7-75.4,4.7-112.9,0c-62.6-7.8-120.3,22-167.7,29.9
	c-47.2,7.8-34,65-11.2,107.1v20.4c0,9.6,6.9,17.5,15.3,17.5c26.7-0.1,26.3,0.3,29.3-0.4c3.3,4.3,8.2,7,13.7,7h34.5
	c4.3,0,8.2-1.6,11.3-4.3c5.3,4.9,12.3,7.9,20,7.9c13-1,24.4,3,36.2-6.2c4.9,7.3,13.1,12.1,22.5,12.1H237c7.4,0,14.2-3,19-7.9
	c4.9,4.9,11.6,7.9,19,7.9h33.2c9.4,0,17.7-4.8,22.5-12.1c11.9,9.2,23.3,5.2,36.2,6.2c7.7,0,14.8-3,20-7.9c3.1,2.7,7,4.3,11.3,4.3
	h34.5c5.5,0,10.5-2.7,13.7-7c3.1,0.8,3.2,0.4,29.3,0.4c8.5,0,15.3-7.8,15.3-17.5v-20.3C514,163.8,527.5,107,480.1,99.1L480.1,99.1z
	 M37,228c-0.3-0.8-0.3-33.6-0.3-33.7c0-9.8,5.6-18.1,12.3-18.1s12.3,8.3,12.3,18.1c-0.1,33.2,0.3,32.5-0.3,33.7H37z M115.4,231.5
	c0,1.8-1.1,3.1-1.8,3.1H79.1c-0.7,0-1.8-1.2-1.8-3.1c0-9.9,0-29.5,0-39.3c0-12.5,8.5-22.6,19-22.6s19,10.2,19,22.6
	C115.4,205.5,115.4,217.1,115.4,231.5L115.4,231.5z M163.1,238.1h-18.2c-7.5,0-13.5-6.1-13.5-13.5v-28.8c0-12.5,10.2-22.6,22.6-22.6
	c12.5,0,22.6,10.2,22.6,22.6v28.8C176.7,232.1,170.6,238.1,163.1,238.1z M237,244.1h-33.2c-6.1,0-11-5-11-11c0-7-0.3-48.5,0.4-51.8
	c2-9.6,10.5-16.8,20.7-16.8h13.2c10.2,0,18.7,7.2,20.7,16.8c0.8,3.7,0.4,1.7,0.4,51.8C248,239.1,243,244.1,237,244.1L237,244.1z
	 M319.3,233c0,6.1-5,11-11,11h-33.2c-6.1,0-11.1-5-11-11c0.1-50-0.3-48.1,0.4-51.8c2-9.6,10.5-16.8,20.7-16.8h13.2
	c10.2,0,18.7,7.2,20.7,16.8C319.5,184.2,319.3,181.8,319.3,233L319.3,233z M367.1,238.1h-18.2c-7.5,0-13.5-6.1-13.5-13.5v-28.8
	c0-12.5,10.2-22.6,22.6-22.6c12.4,0,22.6,10.1,22.6,22.6v28.8C380.6,232.1,374.5,238.1,367.1,238.1L367.1,238.1z M434.7,231.5
	c0,1.8-1.1,3.1-1.8,3.1h-34.5c-0.7,0-1.8-1.2-1.8-3.1c0-8.1,0-25.1,0-39.3c0-12.5,8.5-22.6,19-22.6c10.5,0,19,10.2,19,22.6
	C434.7,210.6,434.7,222.3,434.7,231.5L434.7,231.5z M475,228H451c-0.4-0.9-0.3,1.5-0.3-33.7c0-9.8,5.6-18.1,12.3-18.1
	c6.7,0,12.3,8.3,12.3,18.1C475.3,229.5,475.4,227.2,475,228L475,228z"/>
<path class="st0" d="M476,297.7c-27.9,0-28.1-0.5-31.9,1.4c-3.1-2.7-6.9-4.2-11.2-4.2h-34.5c-3.8,0-7.3,1.3-10.1,3.4
	c-3.1-2.1-6.7-3.3-10.7-3.3c-42.3,0-42.6-0.8-48.4,2.4c-3.3-2.9-7.6-4.7-12.3-4.7h-50.3c-3.9,0-7.5,1.2-10.5,3.3
	c-3-2.1-6.6-3.3-10.5-3.3h-50.3c-4.7,0-9,1.8-12.3,4.7c-7.4-4.2-10.8-2.1-48.4-2.4c-4,0-7.6,1.2-10.7,3.3c-2.9-2.2-6.4-3.4-10.1-3.4
	H79.1c-4.2,0-8.1,1.6-11.2,4.2c-3.8-1.8-4.1-1.4-31.9-1.4c-8.5,0-15.3,7.8-15.3,17.5c0,23.1-1.1,30,4.1,40.2
	c-0.7,39.4,19.6,82.5,78.7,87.8c40.8,3.6,97.4-5.1,152.4-5.1c55.3,0,111.4,8.8,152.4,5.1c59.2-5.3,79.4-48.4,78.7-87.8
	c6.3-12.5,3.8-22.6,4.1-40.2C491.5,305.6,484.4,297.7,476,297.7L476,297.7z M475,313.7c0.4,0.9,0.3-0.2,0.3,23.9
	c0,6.9-3.2,15.5-9.7,17.7c-8.8,2.9-14.9-8.4-14.9-17.7c0.1-22.6-0.3-22.7,0.3-23.9H475z M396.6,313.9c0-1.8,1.1-3.1,1.8-3.1h34.5
	c0.7,0,1.8,1.2,1.8,3.1c0,32.7,0.3,32.8-1.4,37.9c-2.4,7.2-8.3,13.3-15.9,14.1c-12.1,1.3-20.8-10.4-20.8-22.5
	C396.6,329,396.6,326.4,396.6,313.9z M338.4,311h39.1c1.7,0,3.1,1.4,3.1,3.1v29.5c0,11.7-9,21.6-20.8,22.5
	c-13.3,1.1-24.5-9.5-24.5-22.5v-29.5C335.3,312.4,336.7,311,338.4,311z M266.5,308.7h50.3c1.4,0,2.5,1.1,2.5,2.5v46.3
	c0,11.6-9.5,21.1-21.1,21.1h-13.2c-11.6,0-21.1-9.5-21.1-21.1v-46.3C264,309.9,265.1,308.7,266.5,308.7z M192.7,311.3
	c0-1.4,1.1-2.5,2.5-2.5h50.3c1.4,0,2.5,1.1,2.5,2.5v46.3c0,11.6-9.5,21.1-21.1,21.1h-13.2c-11.6,0-21.1-9.5-21.1-21.1
	C192.7,333.1,192.7,324.6,192.7,311.3z M134.5,311h39.1c1.7,0,3.1,1.4,3.1,3.1c0,32.5,0.1,30.9-0.4,33.8
	c-5.3,27.3-44.8,22.3-44.8-4.3c0-10.4,0-17.9,0-29.5C131.4,312.4,132.8,311,134.5,311z M77.3,313.9c0-1.8,1.1-3.1,1.8-3.1h34.5
	c0.7,0,1.8,1.2,1.8,3.1v29.5c0,6.2-2.2,10.6-2,10.1c-8.9,21-36,14-36-10.1C77.3,325.4,77.3,329.9,77.3,313.9z M36.7,315.2
	c0-0.7,0.1-1.1,0.3-1.4h24.1c0.6,1.2,0.2,1.5,0.3,23.9c0.1,16.3-13.8,24.7-21.6,11.8C34.9,341.1,37.1,333.2,36.7,315.2L36.7,315.2z"
	/>
</svg>
