<?xml version="1.0" encoding="utf-8"?>
<!-- Generator: Adobe Illustrator 23.0.2, SVG Export Plug-In . SVG Version: 6.00 Build 0)  -->
<svg version="1.1" id="Layer_1" xmlns="http://www.w3.org/2000/svg" xmlns:xlink="http://www.w3.org/1999/xlink" x="0px" y="0px"
	 viewBox="0 0 504 504" style="enable-background:new 0 0 504 504;" xml:space="preserve">
<style type="text/css">
	.st0{fill:#FF6E00;}
</style>
<path class="st0" d="M251.8,0C164.7,0,0,12.3,0,58.7v67.1c0,6,3.2,11.5,8.4,14.5v10.7c0,13.9,11.3,25.2,25.2,25.2h9.9
	c3.5,10,13,16.7,23.6,16.8h25.2c4.3,0,8.6-1.2,12.3-3.4c4.6,7.3,12.6,11.7,21.2,11.7h33.6c4.3,0,8.6-1.2,12.3-3.4
	c4.6,7.3,12.6,11.7,21.2,11.7h42c6.2,0,12.2-2.4,16.8-6.5c2.1,2,4.6,3.5,7.3,4.6c-55,21.4-122.6,66.8-166.6,101.6
	C35.5,354.4,3,400.6,0.9,439.9c-0.1,0.3-0.1,0.7-0.1,1.1v0.6c-0.8,14.1,3.1,28,11,39.6v0.1c0.4,0.6,0.8,1.1,1.3,1.6
	c0.1,0.1,0.2,0.1,0.2,0.2l0.2,0.2c9.5,10,21.9,16.7,35.5,19.2c5.5,1.1,11.1,1.6,16.7,1.6c36.6,0,83-20.9,132.7-60.2
	c57.4-45.3,122.9-109.7,149.9-158.5h1c16,0,29-13,29-29v-55c8.4-0.2,16.1-4.6,20.5-11.7c3.8,2.2,8,3.3,12.3,3.4h25.2
	c10.6,0,20.1-6.8,23.6-16.8h9.9c13.9,0,25.2-11.3,25.2-25.2v-10.7c5.2-3,8.4-8.5,8.4-14.5V58.7C503.6,12.3,338.9,0,251.8,0z
	 M251.8,16.8c152.1,0,235,27.7,235,42v49.7c-4.1-3.7-9.4-5.7-14.9-5.6c-5.4,0-10.7,1.8-15,5c-6-10.7-17.5-17.1-29.8-16.6
	c-11.5,0-22.4,4.9-30.1,13.3c-6.9-11.2-19.3-17.7-32.4-17.1c-12.1,0-23.7,4.9-32.3,13.4c-0.8,0.8-1.5,1.8-2.2,2.7
	c-7.4-12.9-21.4-20.6-36.3-19.8c-13.4,0-26.2,5.3-35.7,14.7c-2.4,2.4-4.5,5-6.3,7.8c-9.3-14.1-25.1-22.5-41.9-22.5
	c-14.8-0.8-28.8,6.8-36.2,19.7C165,93.5,152.3,87.7,139,87.7c-13.1-0.6-25.5,5.9-32.4,17.1C98.9,96.3,88,91.4,76.5,91.4
	c-12.3-0.5-23.8,5.9-29.8,16.6c-4.3-3.3-9.6-5-15-5c-5.5-0.1-10.8,1.9-14.9,5.6V58.7C16.8,44.5,99.8,16.8,251.8,16.8z M319,135.1
	c-28.6,4.5-49.8,29-50.3,57.9h-0.1c-4.6,0-8.4-3.8-8.4-8.4v-50.4c0-8.9,3.5-17.5,9.8-23.8c6.3-6.3,14.9-9.8,23.8-9.8
	c6.8-0.3,13.4,2.2,18.2,7c4.8,4.8,7.3,11.4,7,18.2V135.1z M297.6,285.4h2.4c-36.9,36.8-76.1,71.2-117.4,102.9
	c-47.3,37.3-90.6,57.1-123.4,56.5c7.1-32,36.4-69.6,83.6-106.9c40-32.5,82-62.4,125.8-89.5v7.9C268.6,272.3,281.6,285.3,297.6,285.4
	z M25.2,151.1v-22.4c0-1.5,0.3-9,6.5-9c6.4,1,10.9,6.9,10.3,13.4v26.4h-8.4C29,159.5,25.2,155.7,25.2,151.1z M92.4,176.2H67.2
	c-4.6,0-8.4-3.8-8.4-8.4v-42c-0.3-4.8,1.5-9.5,4.8-12.9c3.4-3.4,8.1-5.2,12.9-4.8c13.4,0,24.2,10.9,24.2,24.2v35.4
	C100.8,172.5,97,176.2,92.4,176.2z M159.5,184.6h-33.6c-4.6,0-8.4-3.8-8.4-8.4v-50.4c-0.3-5.8,1.9-11.4,6-15.5s9.7-6.3,15.5-6
	c16,0,28.9,13,28.9,28.9v42.9C167.9,180.9,164.1,184.6,159.5,184.6z M235,193h-42c-4.6,0-8.4-3.8-8.4-8.4v-58.7
	c-0.3-6.8,2.2-13.4,7-18.2c4.8-4.8,11.4-7.3,18.2-7c18.5,0,33.6,15,33.6,33.6v50.4C243.4,189.3,239.7,193,235,193z M102.9,322.7
	c57.3-45.3,120.7-83.6,165.8-100.5v6.8c-47.7,28.5-93.2,60.5-136.2,95.7C80.8,365.4,50,405.9,42.5,442.4c-8.9-2.4-16.9-7.4-23-14.3
	C27.1,396.4,56.1,359.5,102.9,322.7z M188,430.7c-53.7,42.4-101.9,62.1-136.3,55.3c-10-1.9-19.1-6.8-26-14.2
	c-4.6-6.7-7.4-14.5-8-22.7c9.1,6.3,19.5,10.4,30.5,11.7h0.8c38.6,4.9,88.3-15.6,143.9-59.5c75.1-59.3,123.4-104.3,147.1-137.2
	C322,309,251.8,380.3,188,430.7z M361.6,256.3c0,3.5-1.5,6.9-4.2,9.2c0.5-1.5,1.1-3,1.5-4.4c2-7.4-1.7-15.3-8.7-18.4
	c-7-3.2-15.3-0.8-19.6,5.7c-4.7,7.1-9.9,13.8-15.4,20.2h-17.6c-6.8,0-12.2-5.5-12.3-12.3v-62c-0.1-23.5,18.7-42.6,42.1-43.1
	c0.4,0,0.7,0,1.1-0.1c8.9-0.4,17.5,2.9,23.8,9.1s9.6,14.9,9.2,23.8V256.3z M386.1,176.2c0,4.3-3.4,7.9-7.7,8.3V184
	c1.1-25.1-17.6-46.7-42.6-49.2v-1.4c0-7.7,3-15,8.4-20.5c5.4-5.4,12.8-8.5,20.4-8.5c5.8-0.3,11.4,1.9,15.5,6c4.1,4.1,6.3,9.7,6,15.5
	V176.2z M444.9,167.9c0,4.6-3.8,8.4-8.4,8.4h-25.2c-4.6,0-8.4-3.8-8.4-8.4v-35.4c0-13.4,10.9-24.2,24.2-24.2
	c4.8-0.3,9.5,1.5,12.9,4.8c3.4,3.4,5.2,8.1,4.9,12.9V167.9z M478.4,151.1c0,4.6-3.8,8.4-8.4,8.4h-8.4V133
	c-0.6-6.5,3.9-12.3,10.3-13.4c6.2,0,6.5,7.5,6.5,9V151.1z"/>
</svg>
