<?xml version="1.0" encoding="utf-8"?>
<!-- Generator: Adobe Illustrator 23.0.2, SVG Export Plug-In . SVG Version: 6.00 Build 0)  -->
<svg version="1.1" id="Layer_1" xmlns="http://www.w3.org/2000/svg" xmlns:xlink="http://www.w3.org/1999/xlink" x="0px" y="0px"
	 viewBox="0 0 496 496" style="enable-background:new 0 0 496 496;" xml:space="preserve">
<style type="text/css">
	.st0{fill:#FF6E00;}
</style>
<path class="st0" d="M48,186.4V208c0,13.2,10.8,24,24,24h32c6.2,0,11.7-2.4,16-6.2c4.3,3.8,9.8,6.2,16,6.2h32c3.3,0,6.4-0.7,9.2-1.9
	c2.4,5.8,8.1,9.9,14.8,9.9h48c2.9,0,5.6-0.8,8-2.2c2.4,1.4,5.1,2.2,8,2.2h48c6.6,0,12.4-4.1,14.8-9.9c2.8,1.2,6,1.9,9.2,1.9h32
	c6.2,0,11.7-2.4,16-6.2c4.3,3.8,9.8,6.2,16,6.2h32c13.2,0,24-10.8,24-24v-21.6l41.5-62.3c4.3-6.4,6.5-13.8,6.5-21.5
	c0-21.3-17.4-38.7-38.7-38.7h-31.7c-18.3,0-36.3,6.3-50.6,17.8C363.5,90.9,349.1,96,334.4,96H161.6c-14.7,0-29.1-5.1-40.6-14.2
	C106.7,70.3,88.7,64,70.4,64H38.7C17.4,64,0,81.4,0,102.7c0,7.7,2.2,15.1,6.5,21.5L48,186.4z M104,216H72c-4.4,0-8-3.6-8-8v-32
	c0-13.2,10.8-24,24-24h8c8.8,0,16,7.2,16,16v40C112,212.4,108.4,216,104,216z M168,216h-32c-4.4,0-8-3.6-8-8v-24
	c0-17.6,14.4-32,32-32c8.8,0,16,7.2,16,16v40C176,212.4,172.4,216,168,216z M192,224v-56c0-13.2,10.8-24,24-24s24,10.8,24,24v56H192
	z M304,224h-48v-56c0-13.2,10.8-24,24-24s24,10.8,24,24V224z M360,216h-32c-4.4,0-8-3.6-8-8v-40c0-8.8,7.2-16,16-16
	c17.6,0,32,14.4,32,32v24C368,212.4,364.4,216,360,216z M432,208c0,4.4-3.6,8-8,8h-32c-4.4,0-8-3.6-8-8v-40c0-8.8,7.2-16,16-16h8
	c13.2,0,24,10.8,24,24V208z M38.7,80h31.7c14.7,0,29.1,5.1,40.6,14.2c14.3,11.4,32.3,17.8,50.6,17.8h172.8
	c18.3,0,36.3-6.3,50.6-17.8C396.5,85,410.9,80,425.6,80h31.7c12.5,0,22.7,10.2,22.7,22.7c0,4.5-1.3,8.8-3.8,12.6l-30.9,46.4
	c-5.8-15-20.2-25.7-37.2-25.7h-8c-12,0-22.4,6.7-27.8,16.5c-8.8-10.1-21.7-16.5-36.2-16.5c-9,0-17,3.7-22.8,9.6
	C306,135,293.8,128,280,128c-13.1,0-24.7,6.4-32,16.2c-7.3-9.8-18.9-16.2-32-16.2c-13.8,0-26,7-33.2,17.6C177,139.7,169,136,160,136
	c-14.4,0-27.4,6.4-36.2,16.5C118.4,142.7,108,136,96,136h-8c-17,0-31.5,10.7-37.2,25.7l-30.9-46.4c-2.5-3.7-3.8-8.1-3.8-12.6
	C16,90.2,26.2,80,38.7,80z"/>
<path class="st0" d="M448,309.6V288c0-13.2-10.8-24-24-24h-32c-6.2,0-11.7,2.4-16,6.2c-4.3-3.8-9.8-6.2-16-6.2h-32
	c-3.3,0-6.4,0.7-9.2,1.9c-2.4-5.8-8.1-9.9-14.8-9.9h-48c-2.9,0-5.6,0.8-8,2.2c-2.4-1.4-5.1-2.2-8-2.2h-48c-6.6,0-12.4,4.1-14.8,9.9
	c-2.8-1.2-6-1.9-9.2-1.9h-32c-6.2,0-11.7,2.4-16,6.2c-4.3-3.8-9.8-6.2-16-6.2H72c-13.2,0-24,10.8-24,24v21.6L6.5,371.8
	C2.2,378.2,0,385.6,0,393.3C0,414.6,17.4,432,38.7,432h31.7c18.3,0,36.3-6.3,50.6-17.8c11.5-9.2,25.9-14.2,40.6-14.2h172.8
	c14.7,0,29.1,5.1,40.6,14.2c14.3,11.4,32.3,17.8,50.6,17.8h31.7c21.3,0,38.7-17.4,38.7-38.7c0-7.7-2.2-15.1-6.5-21.5L448,309.6z
	 M392,280h32c4.4,0,8,3.6,8,8v32c0,13.2-10.8,24-24,24h-8c-8.8,0-16-7.2-16-16v-40C384,283.6,387.6,280,392,280z M328,280h32
	c4.4,0,8,3.6,8,8v24c0,17.6-14.4,32-32,32c-8.8,0-16-7.2-16-16v-40C320,283.6,323.6,280,328,280z M304,272v56c0,13.2-10.8,24-24,24
	s-24-10.8-24-24v-56H304z M192,272h48v56c0,13.2-10.8,24-24,24s-24-10.8-24-24V272z M136,280h32c4.4,0,8,3.6,8,8v40
	c0,8.8-7.2,16-16,16c-17.6,0-32-14.4-32-32v-24C128,283.6,131.6,280,136,280z M64,288c0-4.4,3.6-8,8-8h32c4.4,0,8,3.6,8,8v40
	c0,8.8-7.2,16-16,16h-8c-13.2,0-24-10.8-24-24V288z M457.3,416h-31.7c-14.7,0-29.1-5.1-40.6-14.2c-14.3-11.4-32.3-17.8-50.6-17.8
	H161.6c-18.3,0-36.3,6.3-50.6,17.8C99.5,410.9,85.1,416,70.4,416H38.7C26.2,416,16,405.8,16,393.3c0-4.5,1.3-8.8,3.8-12.6l30.9-46.4
	C56.5,349.3,71,360,88,360h8c12,0,22.4-6.7,27.8-16.5c8.8,10.1,21.7,16.5,36.2,16.5c9,0,17-3.7,22.8-9.6C190,361,202.2,368,216,368
	c13.1,0,24.7-6.4,32-16.2c7.3,9.8,18.9,16.2,32,16.2c13.8,0,26-7,33.2-17.6c5.8,5.9,13.9,9.6,22.8,9.6c14.4,0,27.4-6.4,36.2-16.5
	c5.5,9.8,15.8,16.5,27.8,16.5h8c17,0,31.5-10.7,37.2-25.7l30.9,46.4c2.5,3.8,3.8,8.1,3.8,12.6C480,405.8,469.8,416,457.3,416z"/>
</svg>
