<?xml version="1.0" encoding="utf-8"?>
<!-- Generator: Adobe Illustrator 23.0.2, SVG Export Plug-In . SVG Version: 6.00 Build 0)  -->
<svg version="1.1" id="Capa_1" xmlns="http://www.w3.org/2000/svg" xmlns:xlink="http://www.w3.org/1999/xlink" x="0px" y="0px"
	 viewBox="0 0 512 512" style="enable-background:new 0 0 512 512;" xml:space="preserve">
<style type="text/css">
	.st0{fill:#FF6E00;}
</style>
<g>
	<g>
		<path class="st0" d="M311.9,120C297,135,277.1,143.2,256,143.2s-41-8.2-55.9-23.1c-3.9-3.9-10.2-3.9-14.1,0
			c-3.9,3.9-3.9,10.2,0,14.1c19.3,19.3,44.7,29,70,29s50.7-9.7,70-29c3.9-3.9,3.9-10.2,0-14.1S315.8,116.1,311.9,120L311.9,120z"/>
		<path class="st0" d="M469.9,312.5h-77.5l53.5-87.9c0.1-0.2,0.3-0.5,0.4-0.7c17.1-34.2,17.6-72.9,1.7-107.2l6.1-3.3
			c3.2-1.8,5.2-5.1,5.2-8.8s-2-7-5.2-8.8l-29.8-16.3L408,49.8c-1.8-3.2-5.1-5.2-8.8-5.2s-7,2-8.8,5.2l-3.3,6
			c-16.2-7.4-33.6-11.2-51.8-11.2c-23,0-45.5,6.3-64.9,18.3c-8.9,5.5-20,5.5-28.9,0c-19.4-11.9-41.8-18.3-64.9-18.3
			c-43.2,0-82.6,22-105.4,58.7c-22.8,36.8-24.8,81.8-5.5,120.5c0.1,0.3,0.3,0.5,0.4,0.7l53.5,87.9H42.1C18.9,312.5,0,331.4,0,354.6
			v102.8c0,5.5,4.5,10,10,10h200.8c5.5,0,10-4.5,10-10s-4.5-10-10-10H20v-92.8c0-12.2,9.9-22.1,22.1-22.1h89.7l44.6,73.2
			c4.6,8.9,13.1,15,22.8,16.1c1.2,0.1,2.4,0.2,3.6,0.2c13.1,0,24.6-8.6,28.3-21.4l21.2-63.4c0.1-0.4,0.3-0.9,0.3-1.3
			c0.3-1.9,1.5-2.8,3.4-2.8c1.9,0,3,0.9,3.4,2.8c0.1,0.5,0.2,0.9,0.3,1.3l21.2,63.4c3.6,12.6,15.2,21.4,28.4,21.4
			c11.1,0,21.1-6.1,26.2-15.9l44.8-73.7h89.7c12.2,0,22.1,9.9,22.1,22.1v92.8H301.2c-5.5,0-10,4.5-10,10s4.5,10,10,10H502
			c5.5,0,10-4.5,10-10V354.6C512,331.4,493.1,312.5,469.9,312.5L469.9,312.5z M408.1,91.7c0.9,1.7,2.3,3.1,4,4l16.3,8.9l-16.3,8.9
			c-1.7,0.9-3.1,2.3-4,4l-8.9,16.3l-8.9-16.3c-0.9-1.7-2.3-3.1-4-4l-16.3-8.9l16.3-8.9c1.7-0.9,3.1-2.3,4-4l8.9-16.3L408.1,91.7z
			 M318.1,396.1c-0.1,0.2-0.3,0.5-0.4,0.7c-1.6,3.2-4.9,5.2-8.5,5.2c-4.3,0-8-2.9-9.1-7c0-0.2-0.1-0.4-0.2-0.5l-21.1-63.1
			c-2.4-10.9-11.7-18.4-22.9-18.4s-20.5,7.5-22.9,18.4l-21.1,63.1c-0.1,0.2-0.1,0.4-0.2,0.5c-1.2,4.6-5.6,7.5-10.3,6.9
			c-3.1-0.4-6-2.5-7.5-5.6c-0.1-0.3-0.3-0.5-0.4-0.7L83.4,214.6c-16-32.4-14.2-70,4.8-100.7c19.1-30.8,52.1-49.3,88.4-49.3
			c19.3,0,38.1,5.3,54.4,15.3c15.4,9.5,34.5,9.5,49.9,0c16.2-10,35-15.3,54.4-15.3c14.9,0,29.1,3,42.2,8.8l-3.4,6.2l-29.8,16.3
			c-3.2,1.8-5.2,5.1-5.2,8.8s2,7,5.2,8.8l29.8,16.3l16.3,29.8c1.8,3.2,5.1,5.2,8.8,5.2s7-2,8.8-5.2l16.3-29.8l6.1-3.3
			c12.7,28.3,12.1,60-1.8,88.2L318.1,396.1z"/>
		<path class="st0" d="M265.4,453.6c-1.6-3.9-5.6-6.4-9.7-6.2c-4.1,0.2-7.7,2.9-9,6.8c-1.3,3.9,0,8.5,3.2,11
			c3.3,2.6,7.9,2.9,11.5,0.7C265.6,463.3,267.3,458,265.4,453.6z"/>
	</g>
</g>
</svg>
