<?xml version="1.0" encoding="windows-1252"?>
<!-- Generator: Adobe Illustrator 19.0.0, SVG Export Plug-In . SVG Version: 6.00 Build 0)  -->
<svg version="1.1" id="Capa_1" xmlns="http://www.w3.org/2000/svg" xmlns:xlink="http://www.w3.org/1999/xlink" x="0px" y="0px" viewBox="0 0 479.988 479.988" style="enable-background:new 0 0 479.988 479.988;" xml:space="preserve">
<g>
	<g>
		<path d="M473.418,184.117c-0.47-0.086-0.947-0.129-1.425-0.129h-464c-4.418,0.004-7.997,3.589-7.993,8.007    c0,0.478,0.044,0.955,0.129,1.425c19.178,105.743,111.276,182.61,218.744,182.568h42.24    c107.468,0.042,199.566-76.825,218.744-182.568C480.648,189.073,477.765,184.908,473.418,184.117z M261.113,359.988h-42.24    c-63.818,0.02-124.047-29.523-163.096-80h48.216v24h16v-24h48v48h16v-48h48v48h16v-48h48v48h16v-48h48v24h16v-24h48.216    C385.16,330.465,324.932,360.008,261.113,359.988z M435.505,263.988h-59.512v-40h-16v40h-48v-40h-16v40h-48v-40h-16v40h-48v-40    h-16v40h-48v-40h-16v40H44.481c-12.446-19.671-21.465-41.312-26.672-64h444.368C456.97,222.676,447.952,244.316,435.505,263.988z"/>
	</g>
</g>
<g>
	<g>
		<path d="M79.859,78.654c-0.568-3.357-3.197-5.986-6.554-6.554c-13.036-2.178-23.25-12.395-25.424-25.432    c-0.737-4.356-4.866-7.291-9.222-6.554c-3.357,0.568-5.986,3.197-6.554,6.554C29.932,59.705,19.718,69.922,6.681,72.1    c-4.356,0.737-7.291,4.866-6.554,9.222c0.568,3.357,3.197,5.986,6.554,6.554c13.036,2.178,23.25,12.395,25.424,25.432    c0.737,4.356,4.866,7.291,9.222,6.554c3.357-0.568,5.986-3.197,6.554-6.554c2.174-13.037,12.388-23.254,25.424-25.432    C77.662,87.139,80.596,83.01,79.859,78.654z M39.993,91.412c-3.119-4.439-6.985-8.305-11.424-11.424    c4.439-3.119,8.305-6.985,11.424-11.424c3.119,4.439,6.985,8.305,11.424,11.424C46.978,83.107,43.113,86.972,39.993,91.412z"/>
	</g>
</g>
<g>
	<g>
		<path d="M448.793,308.436c-35.713,70.765-108.182,115.438-187.448,115.552h-42.704c-79.266-0.114-151.735-44.787-187.448-115.552    l-14.4,7.104c38.441,76.219,116.484,124.336,201.848,124.448h42.704c85.364-0.112,163.407-48.229,201.848-124.448L448.793,308.436    z"/>
	</g>
</g>
<g>
	<g>
		<path d="M289.697,112.172c-2.413-0.527-4.935,0.09-6.832,1.672l-42.872,35.744l-42.872-35.728    c-1.897-1.582-4.419-2.199-6.832-1.672l-184,40l3.408,15.616l180.176-39.2l44.992,37.496c2.969,2.48,7.287,2.48,10.256,0    l44.992-37.496l180.176,39.2l3.408-15.632L289.697,112.172z"/>
	</g>
</g>
<g>
</g>
<g>
</g>
<g>
</g>
<g>
</g>
<g>
</g>
<g>
</g>
<g>
</g>
<g>
</g>
<g>
</g>
<g>
</g>
<g>
</g>
<g>
</g>
<g>
</g>
<g>
</g>
<g>
</g>
</svg>