<?xml version="1.0" encoding="utf-8"?>
<!-- Generator: Adobe Illustrator 23.0.2, SVG Export Plug-In . SVG Version: 6.00 Build 0)  -->
<svg version="1.1" id="Capa_1" xmlns="http://www.w3.org/2000/svg" xmlns:xlink="http://www.w3.org/1999/xlink" x="0px" y="0px"
	 viewBox="0 0 409.6 409.6" style="enable-background:new 0 0 409.6 409.6;" xml:space="preserve">
<style type="text/css">
	.st0{fill:#FF6E00;}
</style>
<g>
	<g>
		<path class="st0" d="M406.7,234.9c-1.7-1.2-41.6-28.4-96.9-11.6c-6,1.8-12.7,0.9-21.2-2.7c-3.5-1.5-7.5,0.1-9,3.6
			c-1.5,3.5,0.1,7.5,3.6,9c11.5,4.9,21.5,6,30.6,3.2c40.8-12.3,72.7,2.6,82.2,8v107.2H13.7V244.4c9.6-5.4,41.5-20.3,82.2-8
			c10.1,3.1,21,1.5,34.3-4.9c3.4-1.6,4.8-5.7,3.2-9.1c-1.6-3.4-5.7-4.8-9.1-3.2c-10,4.8-17.7,6.1-24.4,4.1
			c-55.3-16.7-95.2,10.5-96.9,11.6c-1.8,1.3-2.9,3.4-2.9,5.6v117.9c0,3.8,3.1,6.8,6.8,6.8h395.9c3.8,0,6.8-3.1,6.8-6.8V240.5
			C409.6,238.3,408.5,236.2,406.7,234.9z"/>
	</g>
</g>
<g>
	<g>
		<path class="st0" d="M68.3,262.8c-15.1,0-27.3,12.3-27.3,27.3c0,15.1,12.2,27.3,27.3,27.3s27.3-12.3,27.3-27.3
			C95.6,275.1,83.3,262.8,68.3,262.8z M68.3,303.8c-7.5,0-13.7-6.1-13.7-13.7c0-7.5,6.1-13.7,13.7-13.7s13.7,6.1,13.7,13.7
			S75.8,303.8,68.3,303.8z"/>
	</g>
</g>
<g>
	<g>
		<path class="st0" d="M194.6,303.8c-13.2,0-23.9,10.7-23.9,23.9s10.7,23.9,23.9,23.9s23.9-10.7,23.9-23.9S207.7,303.8,194.6,303.8z
			 M194.6,337.9c-5.6,0-10.2-4.6-10.2-10.2s4.6-10.2,10.2-10.2s10.2,4.6,10.2,10.2S200.2,337.9,194.6,337.9z"/>
	</g>
</g>
<g>
	<g>
		<path class="st0" d="M344.7,269.7c-16.9,0-30.7,13.8-30.7,30.7s13.8,30.7,30.7,30.7s30.7-13.8,30.7-30.7S361.7,269.7,344.7,269.7z
			 M344.7,317.4c-9.4,0-17.1-7.7-17.1-17.1c0-9.4,7.7-17.1,17.1-17.1s17.1,7.7,17.1,17.1C361.8,309.8,354.2,317.4,344.7,317.4z"/>
	</g>
</g>
<g>
	<g>
		<path class="st0" d="M247.7,44.4c-8.5,0-16.3,3.7-23.8,7.2c-6.4,3-12.5,5.9-17.9,5.9s-11.5-2.9-17.9-5.9
			c-7.5-3.6-15.3-7.2-23.8-7.2c-31.9,0-55.1,34.2-55.1,81.4c0,26.4,15.2,178,55.1,178c13.5,0,17.7-21.3,24.2-53.5
			c3-14.9,10.9-54.5,17.5-54.5c9.5,0,16.1,37.6,19.7,57.8c5.3,30.2,8.8,50.2,22.1,50.2c39.9,0,55.1-151.6,55.1-178
			C302.8,78.6,279.6,44.4,247.7,44.4z M248.7,290c-3.6-4.6-7.2-25-9.6-38.8c-6-33.9-12.2-69-33.1-69.1
			c-17.8,0.1-23.9,30.4-30.9,65.5c-3,15.2-7.6,37.9-11.7,42.5c-18.5-3.4-40.6-110.8-40.6-164.2c0-38.6,17.8-67.8,41.4-67.8
			c5.4,0,11.5,2.9,17.9,5.9c7.5,3.6,15.3,7.2,23.8,7.2c8.5,0,16.3-3.7,23.8-7.2c6.4-3,12.5-5.9,17.9-5.9c23.6,0,41.4,29.1,41.4,67.8
			C289.2,179.2,267.2,286.3,248.7,290z"/>
	</g>
</g>
<g>
	<g>
		<path class="st0" d="M171.9,64.9c-22.6,0-41,18.4-41,41c0,3.8,3.1,6.8,6.8,6.8c3.8,0,6.8-3.1,6.8-6.8c0-15.1,12.2-27.3,27.3-27.3
			c3.8,0,6.8-3.1,6.8-6.8S175.7,64.9,171.9,64.9z"/>
	</g>
</g>
</svg>
