<?xml version="1.0" encoding="utf-8"?>
<!-- Generator: Adobe Illustrator 23.0.2, SVG Export Plug-In . SVG Version: 6.00 Build 0)  -->
<svg version="1.1" id="Layer_1" xmlns="http://www.w3.org/2000/svg" xmlns:xlink="http://www.w3.org/1999/xlink" x="0px" y="0px"
	 viewBox="0 0 503 503" style="enable-background:new 0 0 503 503;" xml:space="preserve">
<style type="text/css">
	.st0{fill:#FF6E00;}
</style>
<path class="st0" d="M53.8,255.2c16.6,14.3,50.1,33,115.2,41.7l12.5,60.6l-13.1,4.3c-8.8,2.6-15.5,9.7-17.5,18.7s1.1,18.3,8,24.3
	c6.9,6.1,16.5,7.9,25.2,4.8l7.8-2.5l3.6,17.5l-11.7,3.8c-12.8,4.6-19.6,18.5-15.3,31.5c4.2,12.9,17.9,20.1,31,16.3l7.5-2.4
	c8.8,19.6,29.2,31.3,50.6,29s38.8-18.2,43.1-39.2l4.6-21.9l21.1-6.9c12.1-3.9,19.4-16.2,16.9-28.7s-13.9-21.2-26.6-20.2l4.3-21
	l22.7-7.4c12.2-4.1,19.3-16.8,16.5-29.4c-2.9-12.6-14.8-21-27.6-19.4L335,297c65.1-8.7,98.6-27.3,115.2-41.7
	c10.5-9.2,17.9-21.5,20.8-35.2c14.5-63.3,8.7-146.9-30.3-184.3C392.2-10.7,305.9-11.8,251.9,32C198-11.8,111.7-10.7,63.3,35.8
	c-39,37.4-44.8,121-30.3,184.3C36,233.7,43.3,246,53.8,255.2z M186.5,298.9c20.1,1.9,41.9,3,65.4,3s45.4-1,65.4-3l-3.1,15.2
	l-116.8,38.2L186.5,298.9z M284.1,460.1c-3.2,15.2-16.6,26.1-32.1,26.2c-12.3,0-23.5-6.9-29-17.8l63.7-20.8L284.1,460.1z
	 M322.1,403.4c3,1.5,4.8,4.7,4.6,8.1c-0.3,3.4-2.5,6.3-5.7,7.3l-111,36.3l-15.9,5.2c-2.9,1-6.1,0.4-8.4-1.6c-2.3-2-3.3-5.1-2.6-8.1
	s2.9-5.4,5.8-6.2l126.8-41.5c0.8-0.3,1.7-0.4,2.6-0.4C319.7,402.5,321,402.8,322.1,403.4z M298.4,390.9l-86.9,28.4l-3.6-17.5
	l94.7-31L298.4,390.9z M335.8,325.1c2.9,0,5.6,1.5,7.1,4s1.6,5.6,0.3,8.2c-1,2-2.7,3.5-4.9,4.2l-159.6,52.2
	c-4.3,1.3-8.9-1.1-10.3-5.4c-1.4-4.3,0.9-8.9,5.1-10.5l159.6-52.2C334,325.3,334.9,325.1,335.8,325.1z M74.9,47.9
	c22.8-20.5,52.7-31.5,83.4-30.8c32.3-0.5,63.6,11,88,32.2c3.6,3.5,53.7,51.5,97.9,51.5c4.6,0,8.4-3.8,8.4-8.4s-3.8-8.4-8.4-8.4
	c-29.4,0-64.7-27.8-79.4-40.6C312,7.1,387.8,8.3,429,47.9c34.1,32.7,38.7,111.2,25.6,168.5c-2.2,10.2-7.6,19.4-15.5,26.2
	c-15.4,13.3-47.3,30.7-112.3,38.6c-24.9,2.8-49.9,4.2-74.9,4c-25,0.1-50.1-1.2-74.9-4c-64.9-7.8-96.9-25.3-112.3-38.5
	c-7.8-6.9-13.2-16-15.5-26.2C36.2,159.1,40.8,80.6,74.9,47.9z"/>
<path class="st0" d="M73.9,175.5c2.6,0,5.1-1.2,6.7-3.3s2.1-4.8,1.4-7.3c-18.7-68.6,25-91.2,27-92.2c4-2.1,5.7-7,3.7-11.1
	s-6.8-5.9-11-4c-0.6,0.3-58.4,29.1-35.9,111.7C66.8,172.9,70.1,175.5,73.9,175.5z"/>
<path class="st0" d="M143,50.5c0,4.6-3.8,8.4-8.4,8.4c-4.6,0-8.4-3.8-8.4-8.4s3.8-8.4,8.4-8.4C139.2,42.1,143,45.8,143,50.5z"/>
</svg>
