<?xml version="1.0" encoding="utf-8"?>
<!-- Generator: Adobe Illustrator 23.0.2, SVG Export Plug-In . SVG Version: 6.00 Build 0)  -->
<svg version="1.1" id="Capa_1" xmlns="http://www.w3.org/2000/svg" xmlns:xlink="http://www.w3.org/1999/xlink" x="0px" y="0px"
	 viewBox="0 0 454.4 454.4" style="enable-background:new 0 0 454.4 454.4;" xml:space="preserve">
<style type="text/css">
	.st0{fill:#FF6E00;}
</style>
<path class="st0" d="M402,68.5l-50.8-12.7L338.5,4.9C337.7,2,335.1,0,332.2,0s-5.6,2-6.3,4.9l-10.1,40.3c-11.4-5.8-24-8.8-36.9-8.7
	h-1c-17.8,0.1-34.2,9.4-43.9,25c-6.4,10.4-17.6,16.6-29.7,16.6s-23.3-6.2-29.7-16.6c-9.7-15.6-26.1-25-43.9-25h-1.1
	c-0.1,0-0.2,0-0.4,0c-43.9,0-80.4,35.6-81.6,79.4c-0.2,9,1,17.9,3.7,26.5l29,90.6c0,35.5,7.5,89.4,24.2,125.3l37.2,80.4
	c3.2,9.3,11.7,15.6,21.3,15.7c6.1,0.1,11.8-2.3,16.2-6.6c4.3-4.3,6.7-10,6.7-16.1c0-0.6-0.1-1.2-0.2-1.8
	c-7.4-25.9-22.2-98.8-2.3-125.2c5-6.6,11.8-9.8,20.9-9.8c8.9,0,15.5,3.1,20.4,9.6c19.9,26.2,5.4,99.1-1.8,124.9
	c-0.2,0.6-0.2,1.2-0.2,1.8c0,11.8,9.3,22.1,20.8,23c0.6,0.1,1.3,0.1,1.9,0.1c9.6,0,18.2-6.1,21.4-15.3l37.4-80.9
	c16.6-35.8,24.1-89.7,24.1-125.2l29-90.6c2.7-8.5,3.9-17.5,3.7-26.5c-0.2-8.1-1.6-15.9-4.1-23.5L402,81.1c2.9-0.7,4.9-3.3,4.9-6.3
	C406.9,71.8,404.9,69.2,402,68.5z M344.6,82c-2.4,0.5-4.4,2.3-5.1,4.8l-7.3,29.4l-2.5-9.9c-0.9-3.5-4.4-5.6-7.9-4.7
	s-5.6,4.4-4.7,7.9l8.8,35.1c0.7,2.9,3.3,4.9,6.3,4.9s5.6-2,6.3-4.9l8.8-35.3c0.3,2.3,0.5,4.6,0.5,6.9c0.2,7.6-0.8,15.1-3.1,22.2
	L315.4,230c-0.2,0.6-0.3,1.4-0.3,2.1c0.1,34-7,86.3-22.9,120.6L254.7,434c-0.1,0.2-0.2,0.5-0.3,0.7c-1.4,4.3-5.5,7-10,6.6
	s-8.4-4.6-8.8-9.3c3-11,26-100.2-0.6-135.3c-7.4-9.8-17.8-14.7-30.8-14.7c-13.3,0-23.8,5-31.2,14.9c-26.7,35.3-3.2,124.5-0.2,135.5
	c-0.2,2.3-1.2,4.4-2.8,6.1c-1.8,1.8-4.3,2.8-6.9,2.8c-4.1,0-7.9-3-9.2-7.1c-0.1-0.2-0.2-0.5-0.3-0.7l-37.4-80.7
	c-14.6-31.4-21.8-77.8-22.8-111.6c17.8,5.8,60,17.6,110.9,17.6c25.3,0,51.6-3,78.2-8.9c3.5-0.8,5.7-4.2,4.9-7.8
	c-0.8-3.5-4.2-5.7-7.7-4.9c-3.2,0.7-6.4,1.4-9.5,2l14.2-36c1.3-3.3-0.3-7.1-3.7-8.4s-7.1,0.3-8.4,3.7L255,241.9
	c-17.3,2.6-34.3,4-50.8,4c-18.7,0-36.2-1.7-51.8-4.1l-17-43.2c-1.3-3.3-5.1-5-8.4-3.7c-3.3,1.3-5,5.1-3.7,8.4l14.1,35.8
	c-22.7-4.5-39.2-9.9-45.5-12.1l-28.3-88.5c-2.2-7.2-3.3-14.7-3.1-22.3c1-37,31.9-66.9,68.9-66.8h1.1c13.3,0.1,25.6,7.1,32.9,18.9
	c8.8,14.2,24.1,22.7,40.8,22.7s32-8.5,40.8-22.7c7.3-11.8,19.6-18.8,32.9-18.9h1.1c0.1,0,0.2,0,0.3,0c10.6,0,20.9,2.5,30.4,7.2
	l-47.3,11.8c-2.9,0.7-4.9,3.3-4.9,6.3s2,5.6,4.9,6.3l41.2,10.3c3.5,0.9,7-1.2,7.9-4.7s-1.2-7-4.7-7.9l-16-4l29.1-7.3
	c2.4-0.5,4.4-2.3,5.1-4.8l7.3-29.4l7.3,29.1c0.5,2.4,2.3,4.4,4.8,5.1l29.4,7.3L344.6,82z"/>
</svg>
