<?xml version="1.0" encoding="utf-8"?>
<!-- Generator: Adobe Illustrator 23.0.2, SVG Export Plug-In . SVG Version: 6.00 Build 0)  -->
<svg version="1.1" id="Capa_1" xmlns="http://www.w3.org/2000/svg" xmlns:xlink="http://www.w3.org/1999/xlink" x="0px" y="0px"
	 viewBox="0 0 499.5 499.5" style="enable-background:new 0 0 499.5 499.5;" xml:space="preserve">
<style type="text/css">
	.st0{fill:#FF6E00;}
</style>
<g>
	<g>
		<path class="st0" d="M469.5,259.5c-3-14.9-16.2-25.7-31.4-25.7h-12.8c15.9-24.7,24.5-53.7,24.5-83.2v-7.9
			c0-29.2-23.7-52.9-52.9-52.9h-3.5c-10.5,0-20.8,3.2-30,9.3c-6.5,4.4-12.6,6.7-17.6,6.7s-11-2.3-17.6-6.7c-9.2-6.1-19.6-9.3-30-9.3
			h-3.5c-19,0-35.6,10-44.9,25.1c-9.4-15-26-25.1-44.9-25.1h-3.5c-10.5,0-20.8,3.2-30,9.3c-6.5,4.4-12.6,6.7-17.6,6.7
			s-11-2.3-17.6-6.7c-9.2-6.1-19.6-9.3-30-9.3h-3.5c-29.2,0-52.9,23.7-52.9,52.9v7.9c0,29.5,8.7,58.5,24.5,83.2H61.4
			c-15.2,0-28.4,10.8-31.4,25.7L0,409.8h499.5L469.5,259.5z M403.5,236.8l-21.8,57c-0.9,2.4-3.2,4-5.8,4c-3.4,0-6.2-2.8-6.2-6.2
			v-65.8c0-13.2-10.8-24-24-24s-24,10.8-24,24v65.8c0,3.4-2.8,6.2-6.2,6.2c-2.6,0-4.9-1.6-5.8-4L289.3,239l-1.2-2.2
			c-15.5-19.3-25.3-42.6-28.8-67h46.5v16h8h8h48h8h8v-16h46.5C428.8,194.1,419,217.4,403.5,236.8z M321.8,169.8v-16h48v16H321.8z
			 M257.8,142.7c0-20.4,16.6-36.9,36.9-36.9h3.5c7.3,0,14.6,2.3,21.1,6.7c18.6,12.4,34.3,12.4,52.9,0c6.5-4.4,13.8-6.7,21.1-6.7h3.5
			c20.4,0,36.9,16.6,36.9,36.9v7.9c0,1.1-0.1,2.2-0.1,3.2h-47.9v-16h-8h-8h-48h-8h-8v16h-47.9c0-1.1-0.1-2.1-0.1-3.2V142.7z
			 M249.8,199.2c4,12.1,9.6,23.7,16.5,34.5h-33C240.2,223,245.7,211.3,249.8,199.2z M65.8,150.5v-7.9c0-20.3,16.6-36.9,36.9-36.9
			h3.5c7.3,0,14.6,2.3,21.1,6.7c18.6,12.4,34.3,12.4,52.9,0c6.5-4.4,13.8-6.7,21.1-6.7h3.5c20.4,0,36.9,16.6,36.9,36.9v7.9
			c0,1.1-0.1,2.2-0.1,3.2h-47.9v-16h-8h-8h-48h-8h-8v16H65.9C65.9,152.7,65.8,151.6,65.8,150.5z M177.8,153.8v16h-48v-16H177.8z
			 M67.2,169.8h46.5v16h8h8h48h8h8v-16h46.5c-3.5,24.4-13.3,47.7-28.8,67l-21.8,57c-0.9,2.4-3.2,4-5.8,4c-3.4,0-6.2-2.8-6.2-6.2
			v-65.8c0-13.2-10.8-24-24-24s-24,10.8-24,24v65.8c0,3.4-2.8,6.2-6.2,6.2c-2.6,0-4.9-1.6-5.8-4L97.3,239l-1.2-2.2
			C80.5,217.4,70.7,194.1,67.2,169.8z M45.7,262.6c1.5-7.4,8.1-12.9,15.7-12.9h22.8l18.6,49.6c3.2,8.6,11.6,14.4,20.8,14.4
			c12.2,0,22.2-10,22.2-22.2v-65.8c0-4.4,3.6-8,8-8s8,3.6,8,8v65.8c0,12.2,10,22.2,22.2,22.2c9.2,0,17.5-5.8,20.8-14.4l18.6-49.6
			h52.9l18.6,49.6c3.2,8.6,11.6,14.4,20.8,14.4c12.2,0,22.2-10,22.2-22.2v-65.8c0-4.4,3.6-8,8-8s8,3.6,8,8v65.8
			c0,12.2,10,22.2,22.2,22.2c9.2,0,17.5-5.8,20.8-14.4l18.6-49.6h22.8c7.6,0,14.2,5.4,15.7,12.9L480,393.8H19.5L45.7,262.6z"/>
	</g>
</g>
</svg>
