<?xml version="1.0" encoding="utf-8"?>
<!-- Generator: Adobe Illustrator 23.0.2, SVG Export Plug-In . SVG Version: 6.00 Build 0)  -->
<svg version="1.1" id="Layer_1" xmlns="http://www.w3.org/2000/svg" xmlns:xlink="http://www.w3.org/1999/xlink" x="0px" y="0px"
	 viewBox="0 0 496 496" style="enable-background:new 0 0 496 496;" xml:space="preserve">
<style type="text/css">
	.st0{fill:#FF6E00;}
</style>
<path class="st0" d="M393.6,255.2C432.2,231.2,456,186,456,136C456,61,402.2,0,336,0c-33.8,0-65.3,15.8-88,43.6
	C225.3,15.8,193.8,0,160,0C93.8,0,40,61,40,136c0,50,23.8,95.2,62.4,119.2l3,21.8c9.9,72.9,34.5,141.6,73.1,204.2
	c5.1,8.4,13.4,13.8,22.2,14.7c8.1,0.8,16.1-1.8,22-7.2c6-5.4,9.4-13.1,9.4-21.1V337.4c0-9.1,6.8-16.9,15.1-17.3
	c4.4-0.2,8.7,1.3,11.9,4.4s5,7.2,5,11.6v130.2c0,13.7,8.7,25.5,21.1,28.8c2.5,0.7,5,1,7.5,1c9.7,0,18.9-5,24.3-13.6l0.8-1.2
	c38.5-62.6,63.1-131.3,73.1-204.2L393.6,255.2z M378.3,249.2l-3.5,25.6c-9.6,70.6-33.5,137.2-70.8,198l-0.8,1.3
	c-1.1,1.7-2.6,3-4.2,4l36-131.9c6-21.9,9-44.6,9-67.4v-2.1c0-14.8-1.4-29.6-4-44.1l33-26.4c1.5-1.2,2.5-2.8,2.8-4.7l8-40l-15.7-3.1
	l-7.4,37.1L336.3,215c-5.1-20.6-12.8-40.6-22.9-59.4l34.7-20.8c1.9-1.2,3.3-3.1,3.7-5.3l8-40l-15.7-3.1l-7.3,36.5l-31.3,18.8
	l-10.7-17.8l-13.7,8.2l12.7,21.1c5.9,9.9,11.1,20.2,15.5,30.8h-25l-13.6-20.4l-13.3,8.9l16,24c1.5,2.2,4,3.6,6.7,3.6h35.3
	c6.3,18.6,10.3,38,11.8,57.6l-29.2,5.8l-29.1-21.8l-9.6,12.8l32,24c1.4,1.1,3.1,1.6,4.8,1.6c0.5,0,1-0.1,1.6-0.2l30.3-6.1
	c0,1,0.1,1.9,0.1,2.9v2.1c0,21.3-2.8,42.6-8.5,63.2l-36.4,133.4c-1.9-2.5-3.2-5.6-3.2-9.1V336c0-8.7-3.6-17.2-10-23.2
	c-6.4-6.1-14.8-9.1-23.7-8.8c-17,0.9-30.3,15.5-30.3,33.3v130.1c0,3-1.1,5.9-3.1,8.1l-36.5-133.7c-5.6-20.6-8.5-41.8-8.5-63.1v-2.1
	c0-1,0.1-1.9,0.1-2.9l30.3,6.1c0.5,0.1,1.1,0.2,1.6,0.2c1.7,0,3.4-0.6,4.8-1.6l32-24l-9.6-12.8L198,263.4l-29.2-5.8
	c1.6-19.7,5.6-39,11.8-57.6H216c2.7,0,5.2-1.3,6.7-3.6l16-24l-13.3-8.9L211.7,184h-25c4.4-10.6,9.6-20.9,15.5-30.8l12.7-21.1
	l-13.7-8.2l-10.7,17.8L159.1,123l-7.3-36.5l-15.7,3.1l8,40c0.4,2.2,1.8,4.1,3.7,5.3l34.7,20.8c-10.1,18.8-17.8,38.8-22.9,59.4
	l-24.4-19.5l-7.4-37.1l-15.7,3.1l8,40c0.4,1.8,1.4,3.5,2.8,4.7l33,26.4c-2.5,14.5-4,29.2-4,44.1v2.1c0,22.8,3,45.4,9,67.4L197,477.9
	c-1.9-1.2-3.6-3-5-5.2c-37.4-60.7-61.2-127.3-70.8-198l-3.5-25.6c-0.3-2.5-1.8-4.6-3.9-5.9C78.1,222.9,56,181.7,56,136
	c0-66.2,46.7-120,104-120c31.8,0,61.5,16.6,81.4,45.5c3,4.3,10.2,4.3,13.2,0C274.5,32.6,304.2,16,336,16c57.3,0,104,53.8,104,120
	c0,45.7-22.1,86.9-57.8,107.3C380.1,244.6,378.6,246.7,378.3,249.2z"/>
<path class="st0" d="M424,136c0-57.3-39.5-104-88-104v16c39.7,0,72,39.5,72,88H424z"/>
<path class="st0" d="M384,432c-17.6,0-32,14.4-32,32s14.4,32,32,32s32-14.4,32-32C416,446.3,401.6,432,384,432z M384,480
	c-8.8,0-16-7.2-16-16s7.2-16,16-16s16,7.2,16,16S392.8,480,384,480z"/>
<path class="st0" d="M440,320c-30.9,0-56,25.1-56,56s25.1,56,56,56s56-25.1,56-56S470.9,320,440,320z M440,416
	c-22.1,0-40-17.9-40-40s17.9-40,40-40s40,17.9,40,40C480,398,462.1,416,440,416z"/>
<path class="st0" d="M112,432c-17.6,0-32,14.4-32,32s14.4,32,32,32s32-14.4,32-32C144,446.3,129.7,432,112,432z M112,480
	c-8.8,0-16-7.2-16-16s7.2-16,16-16s16,7.2,16,16S120.8,480,112,480z"/>
<path class="st0" d="M112,376c0-30.9-25.1-56-56-56S0,345.1,0,376s25.1,56,56,56S112,406.9,112,376z M56,416c-22,0-40-18-40-40
	c0-22.1,17.9-40,40-40s40,17.9,40,40C96,398,78.1,416,56,416z"/>
</svg>
