<?xml version="1.0" encoding="utf-8"?>
<!-- Generator: Adobe Illustrator 23.0.2, SVG Export Plug-In . SVG Version: 6.00 Build 0)  -->
<svg version="1.1" id="icons" xmlns="http://www.w3.org/2000/svg" xmlns:xlink="http://www.w3.org/1999/xlink" x="0px" y="0px"
	 viewBox="0 0 512 512" style="enable-background:new 0 0 512 512;" xml:space="preserve">
<style type="text/css">
	.st0{fill:#FF6E00;}
</style>
<path class="st0" d="M8,376.1h16c4.4,0,8-3.6,8-8c0-4.4,3.6-8,8-8h9.1l7,49.1c0.1,0.4,0.3,0.7,0.4,1.1c0.1,0.4,0.2,0.8,0.4,1.2
	c0.3,0.5,0.6,1,1,1.5c0.2,0.3,0.4,0.6,0.7,0.9c0.5,0.4,1,0.8,1.6,1.1c0.3,0.2,0.6,0.4,0.9,0.5c0.9,0.4,1.9,0.6,3,0.6h0h12
	c13.2,0,24-10.8,24-24v-20c0-2.2,1.8-4,4-4s4,1.8,4,4v20c0,13.2,10.8,24,24,24h12h0c1,0,2-0.2,3-0.6c0.3-0.1,0.6-0.4,0.9-0.5
	c0.6-0.3,1.1-0.6,1.6-1.1c0.3-0.3,0.5-0.6,0.7-0.9c0.4-0.5,0.7-0.9,1-1.5c0.2-0.4,0.3-0.8,0.4-1.2c0.1-0.4,0.3-0.7,0.4-1.1l7-49.1
	h42l7,49.1c0.1,0.4,0.3,0.7,0.4,1.1c0.1,0.4,0.2,0.8,0.4,1.2c0.3,0.5,0.6,1,1,1.5c0.2,0.3,0.4,0.6,0.7,0.9c0.5,0.4,1,0.8,1.6,1.1
	c0.3,0.2,0.6,0.4,0.9,0.5c0.9,0.4,1.9,0.6,3,0.6h0h12c13.2,0,24-10.8,24-24v-20c0-2.2,1.8-4,4-4c2.2,0,4,1.8,4,4v20
	c0,13.2,10.8,24,24,24h12h0c1,0,2-0.2,3-0.6c0.3-0.1,0.6-0.4,0.9-0.5c0.6-0.3,1.1-0.6,1.6-1.1c0.3-0.3,0.5-0.6,0.7-0.9
	c0.4-0.5,0.7-0.9,1-1.5c0.2-0.4,0.3-0.8,0.4-1.2c0.1-0.4,0.3-0.7,0.4-1.1l7-49.1h42l7,49.1c0.1,0.4,0.3,0.7,0.4,1.1
	c0.1,0.4,0.2,0.8,0.4,1.2c0.3,0.5,0.6,1,1,1.5c0.2,0.3,0.4,0.6,0.7,0.9c0.5,0.4,1,0.8,1.6,1.1c0.3,0.2,0.6,0.4,0.9,0.5
	c0.9,0.4,1.9,0.6,3,0.6h0h12c13.2,0,24-10.8,24-24v-20c0-2.2,1.8-4,4-4s4,1.8,4,4v20c0,13.2,10.8,24,24,24h12h0c1,0,2-0.2,3-0.6
	c0.3-0.1,0.6-0.4,0.9-0.5c0.6-0.3,1.1-0.6,1.6-1.1c0.3-0.3,0.5-0.6,0.7-0.9c0.4-0.5,0.7-0.9,1-1.5c0.2-0.4,0.3-0.8,0.4-1.2
	c0.1-0.4,0.3-0.7,0.4-1.1l7.6-53c0.4-0.3,0.8-0.6,1.2-1c1.2,2.9,4,4.9,7.4,4.9c4.4,0,8,3.6,8,8c0,4.4,3.6,8,8,8h16c4.4,0,8-3.6,8-8
	s-3.6-8-8-8h-9.5c-3.2-8.8-11.3-15.3-21.1-15.8c4.2-7.2,6.6-15.5,6.6-24.2c0-26.5-21.5-48-48-48h0c-8.5,0-16.7,2.3-24,6.6
	c-7.3-4.3-15.5-6.6-24-6.6c0,0,0,0,0,0h0c0,0,0,0,0,0c-26.5,0-48,21.5-48,48c0,8.5,2.4,16.8,6.6,24h-21c4.2-7.2,6.5-15.4,6.5-24
	c0-26.5-21.5-48-48-48c0,0,0,0,0,0s0,0,0,0s0,0,0,0c-8.5,0-16.6,2.3-24,6.6c-7.3-4.3-15.6-6.6-24-6.6c-26.5,0-48,21.5-48,48
	c0,8.5,2.4,16.8,6.6,24h-21c4.2-7.2,6.5-15.4,6.5-24c0-26.5-21.5-48-48-48c-8.5,0-16.7,2.3-24,6.6c-7.3-4.3-15.6-6.6-24-6.6
	c-26.5,0-48,21.5-48,48c0,8.6,2.4,16.9,6.6,24.2c-9.8,0.6-18,7-21.2,15.9H8c-4.4,0-8,3.6-8,8S3.6,376.1,8,376.1L8,376.1z
	 M412.8,294.6c3.4-2.6,7.2-4.3,11.1-5.4c-0.6,8.3-7.5,14.8-15.9,14.8s-15.3-6.5-15.9-14.8c3.9,1.1,7.7,2.8,11,5.4
	C406,296.8,410,296.8,412.8,294.6z M376.1,289.1c0.6,17.1,14.6,30.9,31.9,30.9c17.3,0,31.3-13.8,31.9-30.9
	c13.8,3.5,24.1,16,24.1,30.9c0,10.2-4.7,19.5-12.8,25.6c-0.2,0.2-0.3,0.4-0.6,0.6c-0.6,0.5-1.1,1-1.5,1.7c-0.5,0.8-0.7,1.6-0.9,2.4
	c0,0.2-0.2,0.3-0.2,0.5l-7,49.1H436c-4.4,0-8-3.6-8-8v-20c0-11-9-20-20-20s-20,9-20,20v20c0,4.4-3.6,8-8,8h-5.1l-7-49.1
	c0-0.2-0.2-0.3-0.2-0.5c0-0.2-0.1-0.3-0.2-0.5c-0.1-0.5-0.3-0.9-0.5-1.4c-0.1-0.2-0.1-0.4-0.2-0.6c-0.2-0.3-0.5-0.5-0.7-0.8
	c-0.3-0.4-0.6-0.7-0.9-1c-0.1-0.1-0.2-0.3-0.3-0.4c0,0-0.1-0.1-0.1-0.1l0,0c0,0,0,0,0,0c-8.1-6.1-12.8-15.4-12.8-25.6
	C352,305.1,362.3,292.7,376.1,289.1L376.1,289.1z M260.8,294.6c3.4-2.6,7.2-4.3,11.1-5.4c-0.6,8.2-7.5,14.8-15.9,14.8
	s-15.3-6.6-15.9-14.8c3.9,1.1,7.7,2.8,11.1,5.4C254,296.8,258,296.8,260.8,294.6z M224.1,289.2c0.6,17.1,14.6,30.9,31.9,30.9
	c17.3,0,31.3-13.8,31.9-30.9c13.8,3.5,24.1,16,24.1,30.9c0,10.2-4.7,19.5-12.8,25.6c-0.1,0-0.1,0.1-0.2,0.2
	c-0.1,0.1-0.1,0.2-0.2,0.2c-0.4,0.3-0.7,0.7-1,1.1c-0.2,0.3-0.5,0.5-0.7,0.8c-0.1,0.2-0.1,0.4-0.2,0.5c-0.2,0.4-0.3,0.9-0.5,1.4
	c0,0.2-0.1,0.3-0.2,0.5c0,0.2-0.2,0.4-0.2,0.6l-7,49.1H284c-4.4,0-8-3.6-8-8v-20c0-11-9-20-20-20s-20,9-20,20v20c0,4.4-3.6,8-8,8
	h-5.1l-7-49.1c0-0.2-0.2-0.3-0.2-0.5c0-0.2-0.1-0.3-0.2-0.5c-0.1-0.5-0.3-0.9-0.5-1.4c-0.1-0.2-0.1-0.4-0.2-0.6
	c-0.2-0.3-0.5-0.5-0.7-0.8c-0.3-0.4-0.6-0.7-1-1.1c0,0,0,0,0,0c-0.2-0.1-0.2-0.3-0.4-0.4c-8.1-6.1-12.8-15.4-12.8-25.6
	C200,305.1,210.3,292.7,224.1,289.2L224.1,289.2z M80,288c6.9,0,13.5,2.3,19.2,6.6c2.8,2.2,6.8,2.2,9.6,0c5.7-4.3,12.3-6.6,19.2-6.6
	c17.6,0,32,14.4,32,32c0,10.2-4.7,19.5-12.8,25.6c-0.2,0.1-0.2,0.3-0.4,0.4c-0.4,0.4-0.7,0.8-1.1,1.2c-0.2,0.2-0.5,0.4-0.6,0.7
	c-0.1,0.2-0.1,0.4-0.2,0.5c-0.2,0.4-0.3,0.9-0.5,1.4c-0.1,0.2-0.2,0.4-0.2,0.6c0,0.1-0.1,0.2-0.1,0.4l-7,49.1H132c-4.4,0-8-3.6-8-8
	v-20c0-11-9-20-20-20s-20,9-20,20v20c0,4.4-3.6,8-8,8h-5.1l-7-49.1c0-0.3-0.2-0.5-0.3-0.7c0-0.1-0.1-0.2-0.1-0.3
	c-0.1-0.5-0.2-0.9-0.5-1.3c-0.1-0.2-0.1-0.4-0.2-0.6c-0.2-0.4-0.5-0.6-0.8-0.9c-0.3-0.3-0.5-0.6-0.8-0.9c-0.2-0.2-0.3-0.4-0.5-0.6
	C52.7,339.5,48,330.2,48,320C48,302.4,62.4,288,80,288L80,288z"/>
<path class="st0" d="M504,480.1H8c-4.4,0-8,3.6-8,8s3.6,8,8,8h496c4.4,0,8-3.6,8-8S508.4,480.1,504,480.1z"/>
<path class="st0" d="M178.3,250.4l-16,16c-3.1,3.1-3.1,8.2,0,11.3c1.6,1.6,3.6,2.3,5.7,2.3s4.1-0.8,5.7-2.3l16-16
	c3.1-3.1,3.1-8.2,0-11.3S181.4,247.3,178.3,250.4L178.3,250.4z"/>
<path class="st0" d="M18.4,250.4c-3.1,3.1-3.1,8.2,0,11.3l16,16c1.6,1.6,3.6,2.3,5.7,2.3s4.1-0.8,5.7-2.3c3.1-3.1,3.1-8.2,0-11.3
	l-16-16C26.6,247.3,21.5,247.3,18.4,250.4L18.4,250.4z"/>
<path class="st0" d="M504,31.9c4.4,0,8-3.6,8-8s-3.6-8-8-8H32c-4.4,0-8,3.6-8,8V96c0,4.4,3.6,8,8,8h24v24c0,4.4,3.6,8,8,8h32v16
	h-7.9C74.8,152,64,162.8,64,176.1v23.4L56.1,255c-0.3,2.3,0.4,4.6,1.9,6.4c1.5,1.8,3.7,2.8,6,2.8h80c0.1,0,0.1,0,0.2,0
	c4.4,0,8-3.6,8-8c0-0.9-0.2-1.8-0.5-2.7l-7.7-53.9v-23.4c0-13.3-10.8-24.1-24.1-24.1H112v-16h32c4.4,0,8-3.6,8-8v-24h143.8
	c0.1,0,0.1,0,0.2,0s0.1,0,0.2,0h31.7c0.1,0,0.1,0,0.2,0s0.1,0,0.2,0h31.7c0.1,0,0.1,0,0.2,0s0.1,0,0.2,0h31.7c0.1,0,0.1,0,0.2,0
	s0.1,0,0.2,0h31.7c0.1,0,0.1,0,0.2,0s0.1,0,0.2,0H504c4.4,0,8-3.6,8-8s-3.6-8-8-8h-72.1V31.9L504,31.9z M73.2,248.1l5.7-40h50.1
	l5.7,40H73.2z M128,192.1H80v-16c0-4.4,3.6-8.1,8.1-8.1h31.9c4.4,0,8.1,3.6,8.1,8.1V192.1z M136,120H72v-16h64V120z M336,31.9h16V88
	h-16V31.9z M320,88h-16V31.9h16V88z M368,31.9h16V88h-16V31.9z M40,31.9h248V88H40V31.9z M415.9,88h-16V31.9h16V88z"/>
</svg>
