<?xml version="1.0" encoding="utf-8"?>
<!-- Generator: Adobe Illustrator 23.0.2, SVG Export Plug-In . SVG Version: 6.00 Build 0)  -->
<svg version="1.1" id="Capa_1" xmlns="http://www.w3.org/2000/svg" xmlns:xlink="http://www.w3.org/1999/xlink" x="0px" y="0px"
	 viewBox="0 0 480 480" style="enable-background:new 0 0 480 480;" xml:space="preserve">
<style type="text/css">
	.st0{fill:#FF6E00;}
</style>
<g>
	<g>
		<path class="st0" d="M473.4,184.1c-0.5-0.1-0.9-0.1-1.4-0.1H8c-4.4,0-8,3.6-8,8c0,0.5,0,1,0.1,1.4C19.3,299.2,111.4,376,218.9,376
			h42.2c107.5,0,199.6-76.8,218.7-182.6C480.6,189.1,477.8,184.9,473.4,184.1z M261.1,360h-42.2c-63.8,0-124-29.5-163.1-80H104v24
			h16v-24h48v48h16v-48h48v48h16v-48h48v48h16v-48h48v24h16v-24h48.2C385.2,330.5,324.9,360,261.1,360z M435.5,264H376v-40h-16v40
			h-48v-40h-16v40h-48v-40h-16v40h-48v-40h-16v40h-48v-40h-16v40H44.5C32,244.3,23,222.7,17.8,200h444.4
			C457,222.7,448,244.3,435.5,264z"/>
	</g>
</g>
<g>
	<g>
		<path class="st0" d="M79.9,78.7c-0.6-3.4-3.2-6-6.6-6.6c-13-2.2-23.3-12.4-25.4-25.4c-0.7-4.4-4.9-7.3-9.2-6.6
			c-3.4,0.6-6,3.2-6.6,6.6c-2.2,13-12.4,23.3-25.4,25.4c-4.4,0.7-7.3,4.9-6.6,9.2c0.6,3.4,3.2,6,6.6,6.6c13,2.2,23.3,12.4,25.4,25.4
			c0.7,4.4,4.9,7.3,9.2,6.6c3.4-0.6,6-3.2,6.6-6.6c2.2-13,12.4-23.3,25.4-25.4C77.7,87.1,80.6,83,79.9,78.7z M40,91.4
			C36.9,87,33,83.1,28.6,80c4.4-3.1,8.3-7,11.4-11.4c3.1,4.4,7,8.3,11.4,11.4C47,83.1,43.1,87,40,91.4z"/>
	</g>
</g>
<g>
	<g>
		<path class="st0" d="M448.8,308.4C413.1,379.2,340.6,423.9,261.3,424h-42.7c-79.3-0.1-151.7-44.8-187.4-115.6l-14.4,7.1
			C55.2,391.8,133.3,439.9,218.6,440h42.7c85.4-0.1,163.4-48.2,201.8-124.4L448.8,308.4z"/>
	</g>
</g>
<g>
	<g>
		<path class="st0" d="M289.7,112.2c-2.4-0.5-4.9,0.1-6.8,1.7L240,149.6l-42.9-35.7c-1.9-1.6-4.4-2.2-6.8-1.7l-184,40l3.4,15.6
			l180.2-39.2l45,37.5c3,2.5,7.3,2.5,10.3,0l45-37.5l180.2,39.2l3.4-15.6L289.7,112.2z"/>
	</g>
</g>
</svg>
