<?xml version="1.0" encoding="utf-8"?>
<!-- Generator: Adobe Illustrator 23.0.2, SVG Export Plug-In . SVG Version: 6.00 Build 0)  -->
<svg version="1.1" id="Layer_1" xmlns="http://www.w3.org/2000/svg" xmlns:xlink="http://www.w3.org/1999/xlink" x="0px" y="0px"
	 viewBox="0 0 496 496" style="enable-background:new 0 0 496 496;" xml:space="preserve">
<style type="text/css">
	.st0{fill:#FF6E00;}
</style>
<path class="st0" d="M190.8,101.9l7,4.2c12.9,7.7,27.4,12.2,42.3,13.4V216h16v-96.5c14.9-1.2,29.4-5.7,42.3-13.4l6.6-4
	c4.1-2.4,8-4.1,11.7-4.9c3.7-0.9,7.4-1.3,11.2-1.1l0.5-16c-5-0.1-10.2,0.4-15.2,1.5c-5.3,1.2-10.8,3.5-16.3,6.8l-6.6,4
	c-25.4,15.3-58.8,15.3-84.1,0l-7-4.2c-9.4-5.7-20.2-8.4-31.2-8.2l0.5,16C176.2,95.8,184,97.8,190.8,101.9z"/>
<path class="st0" d="M364.1,316c10.1-44.2,24.6-87.2,43.7-128.4c5.5-11.8,8.2-24.4,8.2-37.5v-12.7c0-49.3-40.1-89.4-89.4-89.4
	c-16.2,0-32.1,4.4-46,12.8l-6.9,4.1c-15.5,9.3-35.7,9.3-51.2,0l-6.9-4.2c-13.9-8.3-29.8-12.7-46-12.7C120.1,48,80,88.1,80,137.4
	v12.7c0,13,2.8,25.6,8.2,37.5c3.6,7.9,7.1,15.9,10.4,24C91.8,223.7,78.9,232,64,232v16c22.1,0,40,17.9,40,40h16
	c0-3.8,0.7-7.4,1.7-10.9c3.8,12.8,7.2,25.8,10.2,38.8c-59,30.1-103.4,80.8-125.3,143.6l-6.6,19V496h496v-17.4l-6.6-19
	C467.5,396.8,423.2,346.1,364.1,316z M96,137.4C96,96.9,128.9,64,169.4,64c13.3,0,26.4,3.6,37.8,10.5l6.9,4.2
	c20.4,12.3,47.3,12.3,67.7,0l6.9-4.2c11.4-6.9,24.5-10.5,37.8-10.5c40.5,0,73.4,32.9,73.4,73.4v12.7c0,10.7-2.3,21.1-6.8,30.8
	c-27.2,58.9-45.6,121.4-54.8,185.7l-8,56.1c-0.8,5.3-5.4,9.3-10.8,9.3c-5.2,0-9.7-3.7-10.7-8.8l-24.6-129.1
	C281,276.6,265.7,264,248,264s-33,12.6-36.4,30.1l-24.6,129.1c-1,5.1-5.5,8.8-10.7,8.8c-5.4,0-10-4-10.8-9.3l-8-56.1
	c-5.2-36.5-13.6-72.7-24.7-107.8c7.1-6.6,16.6-10.8,27.1-10.8v-16c-22.1,0-40-17.9-40-40h-12.4c-1.6-3.7-3.1-7.5-4.8-11.1
	c-4.5-9.7-6.8-20.1-6.8-30.8V137.4z M92.7,240c7.9-4.8,14.6-11.4,19.3-19.3c4.8,7.9,11.4,14.6,19.3,19.3
	c-7.9,4.8-14.6,11.4-19.3,19.3C107.2,251.4,100.6,244.8,92.7,240z M16.5,480l5.3-15.1c20-57.5,60.1-104.2,113.6-132.7
	c2.5,12.2,4.7,24.4,6.4,36.6l8,56.1c1.9,13.2,13.3,23.1,26.6,23.1c12.9,0,24-9.2,26.4-21.8l24.6-129.1c1.9-9.9,10.6-17.1,20.6-17.1
	s18.8,7.2,20.6,17.1l24.6,129.1c2.4,12.7,13.5,21.9,26.4,21.9c13.3,0,24.7-9.9,26.6-23.1l8-56.1c1.8-12.3,4-24.5,6.4-36.6
	c53.4,28.4,93.6,75.2,113.6,132.7l5.3,15.1H16.5z"/>
<path class="st0" d="M56,0h16v16H56V0z"/>
<path class="st0" d="M56,32h16v16H56V32z"/>
<path class="st0" d="M72,16h16v16H72V16z"/>
<path class="st0" d="M40,16h16v16H40V16z"/>
<path class="st0" d="M16,104h16v16H16V104z"/>
<path class="st0" d="M16,136h16v16H16V136z"/>
<path class="st0" d="M32,120h16v16H32V120z"/>
<path class="st0" d="M0,120h16v16H0V120z"/>
<path class="st0" d="M16,280h16v16H16V280z"/>
<path class="st0" d="M16,312h16v16H16V312z"/>
<path class="st0" d="M32,296h16v16H32V296z"/>
<path class="st0" d="M0,296h16v16H0V296z"/>
<path class="st0" d="M432,264h16v16h-16V264z"/>
<path class="st0" d="M432,296h16v16h-16V296z"/>
<path class="st0" d="M448,280h16v16h-16V280z"/>
<path class="st0" d="M416,280h16v16h-16V280z"/>
<path class="st0" d="M464,176h16v16h-16V176z"/>
<path class="st0" d="M464,208h16v16h-16V208z"/>
<path class="st0" d="M480,192h16v16h-16V192z"/>
<path class="st0" d="M448,192h16v16h-16V192z"/>
<path class="st0" d="M456,0h-16c0,22.1-17.9,40-40,40v16c22.1,0,40,17.9,40,40h16c0-22.1,17.9-40,40-40V40C473.9,40,456,22.1,456,0z
	 M448,67.3c-4.8-7.9-11.4-14.6-19.3-19.3c7.9-4.8,14.6-11.4,19.3-19.3c4.8,7.9,11.4,14.6,19.3,19.3C459.4,52.8,452.8,59.4,448,67.3z
	"/>
</svg>
