<?xml version="1.0" encoding="utf-8"?>
<!-- Generator: Adobe Illustrator 23.0.2, SVG Export Plug-In . SVG Version: 6.00 Build 0)  -->
<svg version="1.1" id="Capa_1" xmlns="http://www.w3.org/2000/svg" xmlns:xlink="http://www.w3.org/1999/xlink" x="0px" y="0px"
	 viewBox="0 0 417.9 417.9" style="enable-background:new 0 0 417.9 417.9;" xml:space="preserve">
<style type="text/css">
	.st0{fill:#FF6E00;}
</style>
<path class="st0" d="M365.6,79.4C364.5,35.6,327.9,0,284.1,0c-0.5,0-1,0-1.5,0c-5.2,0-10.3,0.8-15.2,2.4
	c-11.8,3.8-22,11.8-28.7,22.6c-6.4,10.4-17.5,16.6-29.7,16.6c-7.4,0-14.5-2.3-20.3-6.5c-0.1-0.1-0.1-0.1-0.2-0.2
	c-3.6-2.6-6.8-6-9.2-9.9c-0.4-0.7-0.9-1.3-1.3-2c-6.7-9.8-16.4-17.1-27.4-20.6c0,0,0,0,0,0s0,0,0,0c0,0,0,0,0,0
	c-4.9-1.6-10-2.4-15.1-2.4c-0.4,0-0.8,0-1.1,0c-0.1,0-0.3,0-0.4,0C90,0,53.4,35.6,52.3,79.4c-0.2,9,1,17.9,3.7,26.5l29,90.6
	c0,35.3,7.6,89.5,24.2,125.2l37.2,80.4c3.2,9.3,11.7,15.6,21.4,15.7c0.1,0,0.1,0,0.2,0c6,0,11.7-2.3,16-6.6c4.3-4.3,6.7-10,6.7-16.1
	c0-0.6-0.1-1.2-0.2-1.8c-7.4-25.9-22.1-98.8-2.3-125.2c5-6.6,11.8-9.8,20.9-9.8c8.9,0,15.5,3.1,20.4,9.6c19.9,26.2,5.4,99-1.8,124.9
	c-0.2,0.6-0.2,1.2-0.2,1.8c0,11.8,9.3,22.1,20.8,23c10.4,0.9,19.9-5.4,23.3-15.2l37.4-80.9c16.6-35.8,24.1-89.7,24.1-125.2l29-90.6
	c0,0,0,0,0,0C364.6,97.4,365.9,88.5,365.6,79.4z M231.6,77.7c-2.5-2.5-6.7-2.5-9.2,0l-18.3,18.3c-2.8-0.2-5.6-0.6-8.3-1.3l71.6-71.6
	c0.6,2.7,1,5.5,1.3,8.3l-28.9,28.9c-2.5,2.5-2.5,6.7,0,9.2c1.3,1.3,2.9,1.9,4.6,1.9s3.3-0.6,4.6-1.9l17.9-17.9
	c-5.5,20.7-21.8,37-42.5,42.5l7.3-7.3C234.2,84.3,234.2,80.2,231.6,77.7z M176.2,86.3L208,54.6c0.3,0,0.7,0,1,0
	c3.2,0,6.4-0.3,9.5-0.9l-36.2,36.2C180.2,88.8,178.1,87.6,176.2,86.3z M152.4,17.2c0.7,0.4,1.4,0.8,2.1,1.2c0,0,0.1,0,0.1,0.1
	c0.7,0.4,1.3,0.8,1.9,1.3c0.1,0.1,0.3,0.2,0.4,0.3c0.7,0.5,1.3,0.9,1.9,1.4c0.1,0.1,0.2,0.2,0.3,0.2c0.6,0.5,1.1,0.9,1.6,1.4
	c0.1,0.1,0.2,0.2,0.4,0.3c0.6,0.5,1.2,1.1,1.7,1.7c0,0,0.1,0.1,0.1,0.1l-13.9,13.9c0-1-0.1-1.9-0.1-2.9c0-6.6,1-13,3.1-19.1
	C152.2,17.2,152.3,17.2,152.4,17.2z M170.9,35.8c1.4,1.8,2.9,3.5,4.5,5.1l-20.7,20.7c-1-2.2-1.9-4.5-2.7-6.9L170.9,35.8z
	 M161.7,72.9l24.2-24.2c2.1,1.2,4.3,2.1,6.6,3L166.1,78C164.5,76.4,163.1,74.7,161.7,72.9z M349.6,102l-29.3,91.5
	c-0.2,0.6-0.3,1.3-0.3,2c0,0,0,0.1,0,0.1c0.1,34-7,86.3-22.9,120.6l-37.6,81.2c-0.1,0.2-0.2,0.5-0.3,0.7c-1.4,4.3-5.5,7-10,6.6
	c-4.5-0.4-8.4-4.6-8.8-9.3c3-11,26-100.2-0.6-135.3c-7.4-9.8-17.8-14.7-30.8-14.7c-13.3,0-23.8,5-31.2,14.9
	C151,295.8,174.5,385,177.6,396c-0.2,2.3-1.2,4.4-2.8,6.1c-1.8,1.8-4.3,2.8-6.9,2.8c-4.1,0-7.9-3-9.2-7.1c-0.1-0.2-0.2-0.5-0.3-0.7
	l-37.4-80.7c-14.5-31.3-21.8-77.9-22.8-111.6c17.8,5.8,60,17.6,110.9,17.6c25.3,0,51.6-3,78.2-8.9c3.5-0.8,5.7-4.2,4.9-7.8
	c-0.8-3.5-4.2-5.7-7.7-4.9c-3.2,0.7-6.4,1.4-9.5,2l14.2-36c1.3-3.3-0.3-7.1-3.7-8.4c-3.3-1.3-7.1,0.3-8.4,3.7l-17.1,43.3
	c-17.3,2.6-34.3,4-50.8,4c-18.7,0-36.2-1.7-51.8-4.1l-17-43.2c-1.3-3.3-5.1-5-8.4-3.7c-3.3,1.3-5,5.1-3.7,8.4l14.1,35.8
	c-22.7-4.5-39.2-9.9-45.5-12.1L68.4,102c-2.2-7.2-3.3-14.7-3.1-22.3C66.3,42.9,97,13,133.9,13c0.1,0,0.2,0,0.3,0c0.3,0,0.6,0,0.9,0
	c0.1,0,0.1,0,0.2,0c1.5,0,3,0.1,4.5,0.3c-2.4,7.3-3.7,15-3.7,22.9c0,6.1,0.8,12,2.2,17.7c0.1,0.3,0.1,0.7,0.3,1
	c1.9,7.2,4.9,14,8.9,20.2c0.2,0.4,0.5,0.8,0.8,1.2c3.7,5.7,8.3,10.8,13.4,15.2c0.1,0.1,0.1,0.1,0.1,0.2c0.3,0.3,0.6,0.5,0.9,0.7
	c5.5,4.5,11.7,8.3,18.3,11.1c0.3,0.1,0.6,0.2,0.8,0.3c8.4,3.4,17.6,5.3,27.2,5.3c40.2,0,72.9-32.7,72.9-72.9c0-0.7,0-1.3-0.1-2
	c0-0.3,0-0.6,0-1c-0.3-6.8-1.5-13.5-3.6-19.9c1.5-0.2,3-0.3,4.5-0.3c0.1,0,0.1,0,0.2,0c0.3,0,0.6,0,0.8,0c0.1,0,0.2,0,0.4,0
	c36.9,0,67.6,29.9,68.6,66.8C352.8,87.4,351.8,94.8,349.6,102z"/>
</svg>
