<?xml version="1.0" encoding="utf-8"?>
<!-- Generator: Adobe Illustrator 23.0.2, SVG Export Plug-In . SVG Version: 6.00 Build 0)  -->
<svg version="1.1" id="Layer_1" xmlns="http://www.w3.org/2000/svg" xmlns:xlink="http://www.w3.org/1999/xlink" x="0px" y="0px"
	 viewBox="0 0 512 512" style="enable-background:new 0 0 512 512;" xml:space="preserve">
<style type="text/css">
	.st0{fill:#FF6E00;}
</style>
<path class="st0" d="M232,190c4.4,0,8-3.6,8-8v-8c0-4.4-3.6-8-8-8s-8,3.6-8,8v8C224,186.4,227.6,190,232,190z"/>
<path class="st0" d="M280,190c4.4,0,8-3.6,8-8v-8c0-4.4-3.6-8-8-8s-8,3.6-8,8v8C272,186.4,275.6,190,280,190z"/>
<path class="st0" d="M232,214c0,4.4,3.6,8,8,8h32c4.4,0,8-3.6,8-8s-3.6-8-8-8h-32C235.6,206,232,209.5,232,214z"/>
<path class="st0" d="M416,454v-80c0-4.4-3.6-8-8-8h-0.8l-7.2-72.4v-87.6c0-4.4-3.6-8-8-8h-24c-3,0-5.8,1.7-7.2,4.4l-24,48
	c-0.8,1.6-1,3.4-0.7,5.1l7.8,39.2v3.1l-44.9-19.2h0c-1-0.4-2.1-0.6-3.1-0.6h-8v-25.1c1.5-0.8,3-1.6,4.4-2.5c1.2,0.6,2.5,1.2,3.8,1.6
	c14.6,5,30.5-2.7,35.6-17.3l2.6-7.6c2.4-7,2-14.7-1.3-21.4c-1.5-3.1-3.7-6-6.2-8.3c15.3-1.5,26.5-15.2,24.9-30.5
	c-1-9.8-7-18.3-15.9-22.4v-25.3c0-43.7-35.4-79.2-79.2-79.2c-43.7,0-79.2,35.4-79.2,79.2c0,0,0,0,0,0v24.6
	c-14.3,5.7-21.3,22-15.6,36.3c4.2,10.6,14.6,17.6,26,17.6h4c-0.1,22.8,12.1,43.9,32,55.2v25h-8c-0.7,0-1.5,0.1-2.2,0.3L158.6,294
	c-30.4,0.8-54.6,25.6-54.6,55.9v104c0,4.4,3.6,8,8,8h296C412.4,462,416,458.4,416,454z M240,259.6c10.5,2.8,21.5,2.8,32,0v18.1h-32
	V259.6z M324,181.7h-4v-24h4c6.6,0,12,5.4,12,12S330.6,181.7,324,181.7z M193.6,119.2c0-34.9,28.3-63.2,63.2-63.2
	S320,84.3,320,119.2c0,0,0,0,0,0v22.1c-19.8-2.2-37.8-12.4-50-28.2l-6.9-8.9c-2.7-3.5-7.7-4.2-11.2-1.5c-0.6,0.4-1.1,1-1.5,1.5
	l-6.2,8.3c-12.2,16.2-30.5,26.6-50.6,28.8L193.6,119.2z M176,169.7c0-6.6,5.4-12,12-12h4v24h-4C181.4,181.7,176,176.3,176,169.7z
	 M208,197.7v-42.9c18-4.7,34-14.9,46-29.1h5.8c11.5,13.7,27,23.7,44.2,28.6v44.2c0,3.8,3.2,7.2,7,8c0.3,0.1,0.6,0.1,1,0.2
	c6.2,2.2,9.5,9,7.4,15.3l-2.6,7.6c-2.2,6.3-9.1,9.6-15.3,7.4c-1.5-0.5-2.8-1.3-4-2.4c-3-2.6-7.5-2.6-10.5,0
	c-3.1,2.7-6.6,4.9-10.3,6.6c-24,11.3-52.6,1.1-63.9-22.9C209.6,211.7,208,204.8,208,197.7L208,197.7z M168,390h176v24H168V390z
	 M372.9,213.9H384v80c0,0.1,0.1,0.3,0.1,0.4s-0.1,0.3,0,0.4l7.1,71.2H360v-72c0-0.3-0.1-0.5-0.2-0.8c0-0.3,0-0.5,0-0.8l-7.5-37.3
	L372.9,213.9z M344,373.9L344,373.9l-176,0v-66l40.1-11.5c1.4,26.4,24,46.7,50.4,45.3c23.9-1.3,43.2-20,45.2-43.9l40.2,17.2
	L344,373.9z M288,294c0,17.7-14.3,32-32,32s-32-14.3-32-32H288z M120,350c0-19,13.4-35.4,32-39.2V446h-32V350z M168,430h176v16H168
	V430z M400,446h-40v-64h40V446z"/>
<path class="st0" d="M368,142h16v40h-16V142z"/>
<path class="st0" d="M395.1,183.6l40-32l10,12.5l-40,32L395.1,183.6z"/>
</svg>
