<?xml version="1.0" encoding="utf-8"?>
<!-- Generator: Adobe Illustrator 23.0.2, SVG Export Plug-In . SVG Version: 6.00 Build 0)  -->
<svg version="1.1" id="Layer_1" xmlns="http://www.w3.org/2000/svg" xmlns:xlink="http://www.w3.org/1999/xlink" x="0px" y="0px"
	 viewBox="0 0 512 512" style="enable-background:new 0 0 512 512;" xml:space="preserve">
<style type="text/css">
	.st0{fill:#FF6E00;}
</style>
<g>
	<circle class="st0" cx="502" cy="238.5" r="10"/>
	<path class="st0" d="M508.5,132c-2.1-1.8-5-2.8-7.9-2.4c-12,1.8-24.1,3.4-36.3,4.7c-3.4-9-7.9-16.4-13.6-22.1
		c-13.6-13.8-30.7-15.6-44.2-15.6c-1.6,0-3.1,0-4.6,0c-11.2-0.2-23.7-0.3-39.8,7.7c-16.2-8-28.7-7.8-39.8-7.7c-1.5,0-3.1,0-4.6,0
		c-13.4,0-30.6,1.8-44.2,15.6c-5.5,5.6-9.9,12.6-13.2,21.2c-9.7-1.1-19.4-2.3-29.1-3.7l-61.3-17.5c-6.3-1.8-12.7-2.7-19.2-2.7
		c0,0-140.4,0-140.6,0c-5.4,0-10,4.6-10,10v286c0,5.4,4.6,10,10,10h492c5.4,0,10-4.6,10-10v-122c0-5.5-4.5-10-10-10s-10,4.5-10,10
		v112H20v-266h130.6c4.6,0,9.3,0.6,13.7,1.9c0,0,61.9,17.7,61.9,17.7c8.7,2.5,19.3,2.7,28.5,3.8c-1.9,10.2-2.8,21.8-2.8,35
		c0,37.8,5.1,83.4,13.4,119.1c10.6,46.1,24.2,68.5,41.4,68.5c23.4,0,30.7-29.8,39.3-64.3c3.1-12.6,6.3-25.6,10.5-38.3
		c1.5-4.5,4.5-5,5.7-5c1.2,0,4.3,0.5,5.7,5c4.4,13.5,7.2,27.4,10,40.7c4.5,21.9,9.5,61.8,39.4,61.8c17.2,0,30.7-22.4,41.4-68.5
		c8.2-35.7,13.4-81.3,13.4-119.1c0-12.7-0.9-24.1-2.6-34c7.6-0.8,15.1-1.8,22.6-2.8v42.4c0,5.5,4.5,10,10,10s10-4.5,10-10
		c0,0,0-53.9,0-54C512,136.5,510.6,133.8,508.5,132L508.5,132z M439.9,299c-9.6,43.3-19.8,55.5-22.8,56.5
		c-9.5-0.2-13.8-17.5-19.6-45.9c-2.7-13.2-5.8-28.2-10.5-42.8c-3.7-11.5-13.4-18.9-24.8-18.9c0,0,0,0,0,0
		c-11.3,0-21.1,7.4-24.8,18.9c-4.3,13.4-7.8,27.4-10.8,39.7c-3.7,14.9-7.2,29-11.3,38.4c-1.7,3.9-5.1,10.5-8.4,10.6
		c-3-1-13.3-13.3-22.8-56.5c-7.5-34.1-12-75.7-12-111.1c0-71.3,28.5-71.3,45.5-71.3c1.7,0,3.3,0,4.9,0c10-0.1,18.8-0.3,30.5,5.6
		c1.1,0.6,7.8,3.6,9.6,4.5c4.2,2.1,11.9,7.3,17.4,18.9c2.4,4.9,8.4,7,13.3,4.7c5-2.4,7.1-8.4,4.7-13.3c-4.1-8.5-9.1-14.7-14-19.3
		c6-1.2,11.5-1.1,17.5-1c1.6,0,3.3,0,4.9,0c17,0,45.5,0,45.5,71.3C452,223.3,447.5,264.8,439.9,299L439.9,299z"/>
	<path class="st0" d="M173.3,171.8H97.7c-24.6,0-57.2,7.6-57.2,73.6c0,54,14.9,130,48,130.1c24.1,0,30.1-34.3,34.8-51.8
		c2.6-9.8,5.4-19.9,8.8-29.8c0.8-2.3,2.6-2.7,3.5-2.7c1,0,2.7,0.4,3.5,2.7c3.6,10.5,6.1,21.2,8.4,31.6c4.3,19.2,9.5,50,34.9,50
		c33.1,0,48-76.1,48-130.1C230.5,179.4,197.8,171.8,173.3,171.8L173.3,171.8z M199.8,324.5c-7.7,25.5-15.7,31-17.3,31
		c-1.7,0-4.3,0-7.5-6.6c-3.2-6.6-5.5-16.8-7.9-27.7c-2.3-10.4-5-22.3-9-33.8c-3.4-9.8-12.2-16.1-22.4-16.1c0,0,0,0,0,0
		c-10.2,0-19,6.3-22.4,16c-3.7,10.6-6.7,21.6-9.3,31.3c-4,14.7-9.9,37-15.5,37c-1.6,0-9.6-5.5-17.3-31
		c-6.8-22.4-10.7-51.3-10.7-79.1c0-53.6,22.4-53.6,37.2-53.6h75.6c14.8,0,37.2,0,37.2,53.6C210.5,273.3,206.6,302.1,199.8,324.5
		L199.8,324.5z"/>
</g>
</svg>
